<svg width="219" height="25" viewBox="0 0 219 25" fill="none" xmlns="http://www.w3.org/2000/svg">
<path d="M5.11528 0.727362V24.0001H0.194824V0.727362H5.11528Z" fill="url(#paint0_linear_2012_1881)"/>
<path d="M13.9136 13.9092V24.0001H9.07267V6.54554H13.6863V9.62509H13.8908C14.2772 8.60994 14.9249 7.80691 15.834 7.216C16.7431 6.61751 17.8454 6.31827 19.1408 6.31827C20.353 6.31827 21.4098 6.58342 22.3113 7.11373C23.2128 7.64403 23.9136 8.4016 24.4136 9.38645C24.9136 10.3637 25.1636 11.5304 25.1636 12.8865V24.0001H20.3227V13.7501C20.3302 12.6819 20.0575 11.8486 19.5045 11.2501C18.9515 10.644 18.1901 10.341 17.2204 10.341C16.5689 10.341 15.9931 10.4812 15.4931 10.7615C15.0007 11.0418 14.6143 11.4508 14.334 11.9887C14.0613 12.519 13.9211 13.1592 13.9136 13.9092Z" fill="url(#paint1_linear_2012_1881)"/>
<path d="M44.6266 6.54554L38.5244 24.0001H33.0698L26.9676 6.54554H32.0812L35.7062 19.0342H35.888L39.5016 6.54554H44.6266Z" fill="url(#paint2_linear_2012_1881)"/>
<path d="M54.496 24.341C52.7005 24.341 51.1551 23.9774 49.8596 23.2501C48.5717 22.5152 47.5793 21.4774 46.8823 20.1365C46.1854 18.788 45.8369 17.1933 45.8369 15.3524C45.8369 13.5569 46.1854 11.9812 46.8823 10.6251C47.5793 9.26903 48.5604 8.21221 49.8255 7.45463C51.0982 6.69706 52.5907 6.31827 54.3028 6.31827C55.4543 6.31827 56.5263 6.50388 57.5187 6.87509C58.5187 7.23873 59.3899 7.78797 60.1323 8.52282C60.8823 9.25767 61.4657 10.1819 61.8823 11.2955C62.299 12.4016 62.5073 13.6971 62.5073 15.1819V16.5115H47.7687V13.5115H57.9505C57.9505 12.8145 57.799 12.1971 57.496 11.6592C57.1929 11.1213 56.7725 10.7008 56.2346 10.3978C55.7043 10.0872 55.0869 9.93191 54.3823 9.93191C53.6475 9.93191 52.996 10.1024 52.4278 10.4433C51.8672 10.7766 51.4278 11.2274 51.1096 11.7955C50.7914 12.3561 50.6285 12.9811 50.621 13.6705V16.5228C50.621 17.3865 50.7801 18.1327 51.0982 18.7615C51.424 19.3902 51.8823 19.8751 52.4732 20.216C53.0641 20.5569 53.7649 20.7274 54.5755 20.7274C55.1134 20.7274 55.6058 20.6516 56.0528 20.5001C56.4998 20.3486 56.8823 20.1213 57.2005 19.8183C57.5187 19.5152 57.7611 19.144 57.9278 18.7046L62.4051 19.0001C62.1778 20.0758 61.7119 21.0152 61.0073 21.8183C60.3104 22.6137 59.4088 23.2349 58.3028 23.6819C57.2043 24.1213 55.9354 24.341 54.496 24.341Z" fill="url(#paint3_linear_2012_1881)"/>
<path d="M80.1891 11.5228L75.7573 11.7955C75.6816 11.4168 75.5187 11.0758 75.2687 10.7728C75.0187 10.4622 74.6891 10.216 74.2801 10.0342C73.8785 9.84479 73.3975 9.75009 72.8369 9.75009C72.0869 9.75009 71.4543 9.90918 70.9391 10.2274C70.424 10.538 70.1664 10.9546 70.1664 11.4774C70.1664 11.894 70.3331 12.2463 70.6664 12.5342C70.9997 12.8221 71.5717 13.0531 72.3823 13.2274L75.5414 13.8637C77.2384 14.2122 78.5035 14.7728 79.3369 15.5455C80.1702 16.3183 80.5869 17.3334 80.5869 18.591C80.5869 19.7349 80.2498 20.7387 79.5755 21.6024C78.9088 22.466 77.9922 23.1402 76.8255 23.6251C75.6664 24.1024 74.3293 24.341 72.8141 24.341C70.5035 24.341 68.6626 23.8599 67.2914 22.8978C65.9278 21.9281 65.1285 20.6099 64.8937 18.9433L69.6551 18.6933C69.799 19.3978 70.1475 19.9357 70.7005 20.3069C71.2535 20.6705 71.9619 20.8524 72.8255 20.8524C73.674 20.8524 74.3558 20.6895 74.871 20.3637C75.3937 20.0304 75.6588 19.6024 75.6664 19.0796C75.6588 18.6402 75.4732 18.2804 75.1096 18.0001C74.746 17.7122 74.1854 17.4925 73.4278 17.341L70.4051 16.7387C68.7005 16.3978 67.4316 15.8069 66.5982 14.966C65.7725 14.1251 65.3596 13.0531 65.3596 11.7501C65.3596 10.6289 65.6626 9.66297 66.2687 8.85236C66.8823 8.04176 67.7422 7.41676 68.8482 6.97736C69.9619 6.53797 71.2649 6.31827 72.7573 6.31827C74.9619 6.31827 76.6967 6.78418 77.9619 7.716C79.2346 8.64782 79.977 9.91676 80.1891 11.5228Z" fill="url(#paint4_linear_2012_1881)"/>
<path d="M92.9193 6.54554V10.1819H82.4079V6.54554H92.9193ZM84.7943 2.36373H89.6352V18.6365C89.6352 19.0834 89.7034 19.4319 89.8397 19.6819C89.9761 19.9243 90.1655 20.0948 90.4079 20.1933C90.6579 20.2918 90.9458 20.341 91.2715 20.341C91.4988 20.341 91.7261 20.3221 91.9533 20.2842C92.1806 20.2387 92.3549 20.2046 92.4761 20.1819L93.2374 23.7842C92.995 23.8599 92.6541 23.9471 92.2147 24.0455C91.7753 24.1516 91.2412 24.216 90.6124 24.2387C89.4458 24.2842 88.423 24.1289 87.5443 23.7728C86.673 23.4168 85.995 22.8637 85.5102 22.1137C85.0253 21.3637 84.7867 20.4168 84.7943 19.2728V2.36373Z" fill="url(#paint5_linear_2012_1881)"/>
<path d="M119.002 8.25009C118.843 7.69706 118.619 7.20842 118.331 6.78418C118.043 6.35236 117.691 5.98873 117.274 5.69327C116.865 5.39024 116.396 5.15918 115.865 5.00009C115.343 4.841 114.763 4.76145 114.127 4.76145C112.937 4.76145 111.892 5.05691 110.99 5.64782C110.096 6.23873 109.399 7.09857 108.899 8.22736C108.399 9.34857 108.149 10.7198 108.149 12.341C108.149 13.9622 108.396 15.341 108.888 16.4774C109.38 17.6137 110.077 18.4812 110.979 19.0796C111.88 19.6705 112.945 19.966 114.172 19.966C115.286 19.966 116.236 19.769 117.024 19.3751C117.82 18.9736 118.426 18.4092 118.843 17.6819C119.267 16.9546 119.479 16.0948 119.479 15.1024L120.479 15.2501H114.479V11.5455H124.218V14.4774C124.218 16.5228 123.786 18.2804 122.922 19.7501C122.058 21.2122 120.869 22.341 119.354 23.1365C117.839 23.9243 116.104 24.3183 114.149 24.3183C111.968 24.3183 110.051 23.8372 108.399 22.8751C106.748 21.9054 105.46 20.5304 104.536 18.7501C103.619 16.9622 103.161 14.841 103.161 12.3865C103.161 10.5001 103.433 8.81827 103.979 7.341C104.532 5.85615 105.305 4.59857 106.297 3.56827C107.29 2.53797 108.445 1.75388 109.763 1.216C111.081 0.678119 112.509 0.40918 114.047 0.40918C115.365 0.40918 116.593 0.602362 117.729 0.988726C118.865 1.36751 119.873 1.90539 120.752 2.60236C121.638 3.29933 122.361 4.12888 122.922 5.091C123.483 6.04554 123.843 7.09857 124.002 8.25009H119.002Z" fill="url(#paint6_linear_2012_1881)"/>
<path d="M132.664 0.727362V24.0001H127.823V0.727362H132.664Z" fill="url(#paint7_linear_2012_1881)"/>
<path d="M144.428 24.341C142.663 24.341 141.136 23.966 139.848 23.216C138.568 22.4584 137.579 21.4054 136.882 20.0569C136.185 18.7008 135.837 17.1289 135.837 15.341C135.837 13.538 136.185 11.9622 136.882 10.6137C137.579 9.25767 138.568 8.20463 139.848 7.45463C141.136 6.69706 142.663 6.31827 144.428 6.31827C146.193 6.31827 147.716 6.69706 148.996 7.45463C150.284 8.20463 151.276 9.25767 151.973 10.6137C152.67 11.9622 153.019 13.538 153.019 15.341C153.019 17.1289 152.67 18.7008 151.973 20.0569C151.276 21.4054 150.284 22.4584 148.996 23.216C147.716 23.966 146.193 24.341 144.428 24.341ZM144.451 20.591C145.254 20.591 145.924 20.3637 146.462 19.9092C147 19.4471 147.405 18.8183 147.678 18.0228C147.958 17.2274 148.098 16.3221 148.098 15.3069C148.098 14.2918 147.958 13.3865 147.678 12.591C147.405 11.7955 147 11.1668 146.462 10.7046C145.924 10.2425 145.254 10.0115 144.451 10.0115C143.64 10.0115 142.958 10.2425 142.405 10.7046C141.86 11.1668 141.447 11.7955 141.166 12.591C140.894 13.3865 140.757 14.2918 140.757 15.3069C140.757 16.3221 140.894 17.2274 141.166 18.0228C141.447 18.8183 141.86 19.4471 142.405 19.9092C142.958 20.3637 143.64 20.591 144.451 20.591Z" fill="url(#paint8_linear_2012_1881)"/>
<path d="M156.257 24.0001V0.727362H161.098V9.47736H161.246C161.458 9.00767 161.765 8.53039 162.166 8.04554C162.576 7.55312 163.106 7.14403 163.757 6.81827C164.416 6.48494 165.235 6.31827 166.212 6.31827C167.485 6.31827 168.659 6.6516 169.735 7.31827C170.81 7.97736 171.67 8.97357 172.314 10.3069C172.958 11.6327 173.28 13.2955 173.28 15.2955C173.28 17.2425 172.966 18.8865 172.337 20.2274C171.716 21.5607 170.867 22.5721 169.791 23.2615C168.723 23.9433 167.526 24.2842 166.201 24.2842C165.261 24.2842 164.462 24.1289 163.803 23.8183C163.151 23.5077 162.617 23.1175 162.201 22.6478C161.784 22.1705 161.466 21.6895 161.246 21.2046H161.03V24.0001H156.257ZM160.996 15.2728C160.996 16.3107 161.14 17.216 161.428 17.9887C161.716 18.7615 162.132 19.3637 162.678 19.7955C163.223 20.2198 163.886 20.4319 164.666 20.4319C165.454 20.4319 166.121 20.216 166.666 19.7842C167.212 19.3448 167.625 18.7387 167.905 17.966C168.193 17.1857 168.337 16.288 168.337 15.2728C168.337 14.2652 168.197 13.3789 167.916 12.6137C167.636 11.8486 167.223 11.2501 166.678 10.8183C166.132 10.3865 165.462 10.1705 164.666 10.1705C163.879 10.1705 163.212 10.3789 162.666 10.7955C162.129 11.2122 161.716 11.8031 161.428 12.5683C161.14 13.3334 160.996 14.2349 160.996 15.2728Z" fill="url(#paint9_linear_2012_1881)"/>
<path d="M181.487 24.3296C180.374 24.3296 179.381 24.1365 178.51 23.7501C177.639 23.3562 176.95 22.7766 176.442 22.0115C175.942 21.2387 175.692 20.2766 175.692 19.1251C175.692 18.1554 175.87 17.341 176.226 16.6819C176.582 16.0228 177.067 15.4925 177.681 15.091C178.294 14.6895 178.991 14.3865 179.772 14.1819C180.559 13.9774 181.385 13.8334 182.249 13.7501C183.264 13.644 184.082 13.5455 184.703 13.4546C185.325 13.3561 185.775 13.2122 186.056 13.0228C186.336 12.8334 186.476 12.5531 186.476 12.1819V12.1137C186.476 11.394 186.249 10.8372 185.794 10.4433C185.347 10.0493 184.711 9.85236 183.885 9.85236C183.014 9.85236 182.321 10.0455 181.806 10.4319C181.29 10.8107 180.95 11.288 180.783 11.8637L176.306 11.5001C176.533 10.4395 176.98 9.52282 177.647 8.75009C178.313 7.96979 179.173 7.3713 180.226 6.95463C181.287 6.53039 182.514 6.31827 183.908 6.31827C184.878 6.31827 185.806 6.43191 186.692 6.65918C187.586 6.88645 188.378 7.23873 189.067 7.716C189.764 8.19327 190.313 8.80691 190.715 9.55691C191.116 10.2993 191.317 11.1895 191.317 12.2274V24.0001H186.726V21.5796H186.59C186.309 22.1251 185.934 22.6062 185.465 23.0228C184.995 23.4319 184.431 23.7539 183.772 23.9887C183.112 24.216 182.351 24.3296 181.487 24.3296ZM182.874 20.9887C183.586 20.9887 184.215 20.8486 184.76 20.5683C185.306 20.2804 185.734 19.894 186.044 19.4092C186.355 18.9243 186.51 18.3751 186.51 17.7615V15.9092C186.359 16.0077 186.15 16.0986 185.885 16.1819C185.628 16.2577 185.336 16.3296 185.01 16.3978C184.684 16.4584 184.359 16.5152 184.033 16.5683C183.707 16.6137 183.412 16.6554 183.147 16.6933C182.578 16.7766 182.082 16.9092 181.658 17.091C181.234 17.2728 180.904 17.519 180.669 17.8296C180.434 18.1327 180.317 18.5115 180.317 18.966C180.317 19.6251 180.556 20.1289 181.033 20.4774C181.518 20.8183 182.131 20.9887 182.874 20.9887Z" fill="url(#paint10_linear_2012_1881)"/>
<path d="M199.914 0.727362V24.0001H195.073V0.727362H199.914Z" fill="url(#paint11_linear_2012_1881)"/>
<path d="M218.314 11.5228L213.882 11.7955C213.807 11.4168 213.644 11.0758 213.394 10.7728C213.144 10.4622 212.814 10.216 212.405 10.0342C212.004 9.84479 211.522 9.75009 210.962 9.75009C210.212 9.75009 209.579 9.90918 209.064 10.2274C208.549 10.538 208.291 10.9546 208.291 11.4774C208.291 11.894 208.458 12.2463 208.791 12.5342C209.125 12.8221 209.697 13.0531 210.507 13.2274L213.666 13.8637C215.363 14.2122 216.629 14.7728 217.462 15.5455C218.295 16.3183 218.712 17.3334 218.712 18.591C218.712 19.7349 218.375 20.7387 217.701 21.6024C217.034 22.466 216.117 23.1402 214.951 23.6251C213.791 24.1024 212.454 24.341 210.939 24.341C208.629 24.341 206.788 23.8599 205.416 22.8978C204.053 21.9281 203.254 20.6099 203.019 18.9433L207.78 18.6933C207.924 19.3978 208.272 19.9357 208.826 20.3069C209.379 20.6705 210.087 20.8524 210.951 20.8524C211.799 20.8524 212.481 20.6895 212.996 20.3637C213.519 20.0304 213.784 19.6024 213.791 19.0796C213.784 18.6402 213.598 18.2804 213.235 18.0001C212.871 17.7122 212.31 17.4925 211.553 17.341L208.53 16.7387C206.825 16.3978 205.557 15.8069 204.723 14.966C203.897 14.1251 203.485 13.0531 203.485 11.7501C203.485 10.6289 203.788 9.66297 204.394 8.85236C205.007 8.04176 205.867 7.41676 206.973 6.97736C208.087 6.53797 209.39 6.31827 210.882 6.31827C213.087 6.31827 214.822 6.78418 216.087 7.716C217.36 8.64782 218.102 9.91676 218.314 11.5228Z" fill="url(#paint12_linear_2012_1881)"/>
<defs>
<linearGradient id="paint0_linear_2012_1881" x1="0.194824" y1="0.40918" x2="5.37468" y2="47.7055" gradientUnits="userSpaceOnUse">
<stop stop-color="white"/>
<stop offset="1" stop-color="#9E9EA9"/>
</linearGradient>
<linearGradient id="paint1_linear_2012_1881" x1="0.194824" y1="0.40918" x2="5.37468" y2="47.7055" gradientUnits="userSpaceOnUse">
<stop stop-color="white"/>
<stop offset="1" stop-color="#9E9EA9"/>
</linearGradient>
<linearGradient id="paint2_linear_2012_1881" x1="0.194824" y1="0.40918" x2="5.37468" y2="47.7055" gradientUnits="userSpaceOnUse">
<stop stop-color="white"/>
<stop offset="1" stop-color="#9E9EA9"/>
</linearGradient>
<linearGradient id="paint3_linear_2012_1881" x1="0.194824" y1="0.40918" x2="5.37468" y2="47.7055" gradientUnits="userSpaceOnUse">
<stop stop-color="white"/>
<stop offset="1" stop-color="#9E9EA9"/>
</linearGradient>
<linearGradient id="paint4_linear_2012_1881" x1="0.194824" y1="0.40918" x2="5.37468" y2="47.7055" gradientUnits="userSpaceOnUse">
<stop stop-color="white"/>
<stop offset="1" stop-color="#9E9EA9"/>
</linearGradient>
<linearGradient id="paint5_linear_2012_1881" x1="0.194824" y1="0.40918" x2="5.37468" y2="47.7055" gradientUnits="userSpaceOnUse">
<stop stop-color="white"/>
<stop offset="1" stop-color="#9E9EA9"/>
</linearGradient>
<linearGradient id="paint6_linear_2012_1881" x1="0.194824" y1="0.40918" x2="5.37468" y2="47.7055" gradientUnits="userSpaceOnUse">
<stop stop-color="white"/>
<stop offset="1" stop-color="#9E9EA9"/>
</linearGradient>
<linearGradient id="paint7_linear_2012_1881" x1="0.194824" y1="0.40918" x2="5.37468" y2="47.7055" gradientUnits="userSpaceOnUse">
<stop stop-color="white"/>
<stop offset="1" stop-color="#9E9EA9"/>
</linearGradient>
<linearGradient id="paint8_linear_2012_1881" x1="0.194824" y1="0.40918" x2="5.37468" y2="47.7055" gradientUnits="userSpaceOnUse">
<stop stop-color="white"/>
<stop offset="1" stop-color="#9E9EA9"/>
</linearGradient>
<linearGradient id="paint9_linear_2012_1881" x1="0.194824" y1="0.40918" x2="5.37468" y2="47.7055" gradientUnits="userSpaceOnUse">
<stop stop-color="white"/>
<stop offset="1" stop-color="#9E9EA9"/>
</linearGradient>
<linearGradient id="paint10_linear_2012_1881" x1="0.194824" y1="0.40918" x2="5.37468" y2="47.7055" gradientUnits="userSpaceOnUse">
<stop stop-color="white"/>
<stop offset="1" stop-color="#9E9EA9"/>
</linearGradient>
<linearGradient id="paint11_linear_2012_1881" x1="0.194824" y1="0.40918" x2="5.37468" y2="47.7055" gradientUnits="userSpaceOnUse">
<stop stop-color="white"/>
<stop offset="1" stop-color="#9E9EA9"/>
</linearGradient>
<linearGradient id="paint12_linear_2012_1881" x1="0.194824" y1="0.40918" x2="5.37468" y2="47.7055" gradientUnits="userSpaceOnUse">
<stop stop-color="white"/>
<stop offset="1" stop-color="#9E9EA9"/>
</linearGradient>
</defs>
</svg>
