<svg width="15" height="15" viewBox="0 0 15 15" fill="none" xmlns="http://www.w3.org/2000/svg">
<path d="M13.2238 10.0807L11.2129 9.85115C10.9765 9.82338 10.7368 9.84955 10.512 9.92771C10.2871 10.0059 10.0829 10.134 9.91462 10.3024L8.45795 11.7591C6.21056 10.6161 4.38386 8.78937 3.24087 6.54198L4.70545 5.0774C5.04587 4.73698 5.21212 4.26198 5.1567 3.77906L4.92712 1.78406C4.88223 1.39787 4.69689 1.04167 4.40639 0.783276C4.11588 0.524885 3.74049 0.382352 3.3517 0.382814H1.98212C1.08753 0.382814 0.343366 1.12698 0.398782 2.02156C0.818366 8.7824 6.22545 14.1816 12.9784 14.6011C13.8729 14.6566 14.6171 13.9124 14.6171 13.0178V11.6482C14.625 10.8486 14.0234 10.1757 13.2238 10.0807Z" fill="#A1A1AA"/>
</svg>
