<svg width="28" height="29" viewBox="0 0 28 29" fill="none" xmlns="http://www.w3.org/2000/svg">
<path d="M26.5787 0.200012C26.9472 0.200012 27.3006 0.347775 27.5612 0.610795C27.8218 0.873815 27.9681 1.23055 27.9681 1.60251V17.4975C27.9681 17.8695 27.8218 18.2262 27.5612 18.4892C27.3006 18.7522 26.9472 18.9 26.5787 18.9C26.2102 18.9 25.8568 18.7522 25.5963 18.4892C25.3357 18.2262 25.1893 17.8695 25.1893 17.4975V1.60251C25.1893 1.23055 25.3357 0.873815 25.5963 0.610795C25.8568 0.347775 26.2102 0.200012 26.5787 0.200012ZM0.179688 26.8475C0.179687 26.4755 0.326073 26.1188 0.58664 25.8558C0.847207 25.5928 1.20061 25.445 1.56911 25.445H17.3159C17.6844 25.445 18.0378 25.5928 18.2984 25.8558C18.5589 26.1188 18.7053 26.4755 18.7053 26.8475C18.7053 27.2195 18.5589 27.5762 18.2984 27.8392C18.0378 28.1023 17.6844 28.25 17.3159 28.25H1.56911C1.20061 28.25 0.847207 28.1023 0.58664 27.8392C0.326073 27.5762 0.179688 27.2195 0.179688 26.8475ZM8.10866 6.22141C7.84527 5.97367 7.49691 5.8388 7.13695 5.84521C6.77699 5.85163 6.43356 5.99882 6.17899 6.25578C5.92442 6.51274 5.77861 6.85941 5.77225 7.22275C5.7659 7.5861 5.89952 7.93774 6.14494 8.20361L18.1866 20.3586C18.3138 20.4964 18.4672 20.6069 18.6376 20.6836C18.8081 20.7602 18.9921 20.8015 19.1786 20.8048C19.3652 20.8081 19.5505 20.7735 19.7235 20.7029C19.8965 20.6324 20.0537 20.5274 20.1856 20.3942C20.3175 20.261 20.4215 20.1024 20.4914 19.9278C20.5613 19.7531 20.5956 19.5661 20.5923 19.3778C20.589 19.1894 20.5482 19.0037 20.4723 18.8317C20.3963 18.6596 20.2868 18.5048 20.1503 18.3764L8.10866 6.22141Z" fill="#111111"/>
</svg>
