<svg width="300" height="300" viewBox="0 0 300 300" fill="none" xmlns="http://www.w3.org/2000/svg">
<rect width="300" height="300" rx="30" fill="url(#paint0_linear_2305_1559)"/>
<path d="M114.921 159.824V184.09C114.921 191.058 112.848 197.632 108.702 203.812H137.216C136.44 203.935 134.488 205.388 131.361 208.17C125.372 213.39 121.577 216 119.977 216H88.9899C94.906 209.746 97.8641 202.027 97.8641 192.843V170.018C97.8641 164.182 94.4939 154.173 87.7533 139.991C80.7219 125.267 73.3873 113.694 65.7497 105.274C60.0518 98.9703 55.0692 95.8187 50.8018 95.8187C48.0377 95.8187 44.4371 97.2837 40 100.214C49.2864 89.7001 58.4273 84.4432 67.4227 84.4432C72.466 84.4432 76.9394 86.7577 80.8431 91.3867C89.5476 101.777 97.8277 115.356 105.684 132.124C109.369 140.077 112.06 147.119 113.758 153.25C125.008 138.329 132.149 125.969 135.179 116.169C135.955 113.658 136.343 111.454 136.343 109.558C136.343 107.662 136.101 105.902 135.616 104.276C135.131 102.651 134.391 101.236 133.397 100.029C131.336 97.5176 128.463 96.2619 124.778 96.2619C123.008 96.2619 121.407 96.4712 119.977 96.8898C121.286 96.5204 122.668 95.634 124.123 94.2306C125.578 92.8271 127.13 91.3621 128.778 89.8355C133.215 85.9452 137.349 84 141.18 84C144.987 84 147.981 85.0588 150.164 87.1763C152.37 89.3184 153.473 92.0269 153.473 95.3016C153.473 98.5764 152.746 102.048 151.291 105.717C149.836 109.386 147.969 113.214 145.69 117.203C143.411 121.217 140.841 125.279 137.98 129.391C135.095 133.503 132.233 137.455 129.397 141.247C126.56 145.039 123.856 148.535 121.286 151.736C118.716 154.961 116.594 157.658 114.921 159.824ZM181.878 98.5148H165.257C174.907 90.3402 180.654 86.2529 182.496 86.2529H260C259.176 86.3761 257.915 87.1886 256.218 88.6905C254.545 90.1925 253.114 91.4606 251.926 92.4947C250.738 93.5535 249.586 94.5014 248.471 95.3386C245.804 97.4561 243.876 98.5148 242.688 98.5148H199.19V147.562H242.252C241.476 147.686 240.227 148.51 238.506 150.037C236.808 151.564 235.366 152.844 234.178 153.878C232.989 154.888 231.838 155.848 230.722 156.759C228.104 158.852 226.176 159.898 224.94 159.898H199.19V181.024C199.19 191.833 197.056 199.405 192.789 203.738H221.303C220.478 203.861 219.218 204.674 217.52 206.176C215.823 207.678 214.392 208.958 213.229 210.017C212.041 211.051 210.877 212.023 209.737 212.935C207.07 214.978 205.155 216 203.991 216H173.877C179.211 207.579 181.878 200.402 181.878 194.468V159.898H169.44C173.586 156.55 177.732 153.25 181.878 150V98.5148Z" fill="white"/>
<defs>
<linearGradient id="paint0_linear_2305_1559" x1="-12.0579" y1="16.508" x2="348.524" y2="294.615" gradientUnits="userSpaceOnUse">
<stop stop-color="#0D131C"/>
<stop offset="0.345257" stop-color="#0D131C"/>
<stop offset="0.573012" stop-color="#0D232E"/>
<stop offset="0.738442" stop-color="#08303D"/>
<stop offset="0.848693" stop-color="#103B49"/>
<stop offset="0.988578" stop-color="#031E27"/>
</linearGradient>
</defs>
</svg>
