<svg width="207" height="40" viewBox="0 0 207 40" fill="none" xmlns="http://www.w3.org/2000/svg">
<path fill-rule="evenodd" clip-rule="evenodd" d="M3.81966 7.63932L13.8197 0H26.1803L36.1803 7.63932L40 20L36.1803 32.3607L26.1803 40H13.8197L3.81966 32.3607L0 20L3.81966 7.63932ZM20 2.11145L15.3585 0.525731L24.6415 0.525731L20 2.11145ZM19.191 2.38785L14.0106 0.618034L10.809 5.25146L19.191 2.38785ZM11.0365 5.72652L19.4568 2.84982L16.2104 7.56372L11.0365 5.72652ZM10.1534 6.20033L4.7517 14.0177L10.1309 12.2056L10.1534 6.20033ZM10.1289 12.7583L4.65628 14.6019L8.00973 19.4712L10.1152 16.414L10.1289 12.7583ZM10.6179 15.684L10.6295 12.5897L13.3893 11.6599L10.6179 15.684ZM10.1118 17.3153L8.31839 19.9194L10.0925 22.4953L10.1118 17.3153ZM10.5898 23.2174L10.6146 16.5853L14.1931 11.3892L19.9547 9.44821L26.0604 11.6163L29.6308 16.8007L29.6801 23.3512L23.8329 31.6127L14.1176 28.3399L10.5898 23.2174ZM10.0891 23.3869L8.00973 20.3675L4.70336 25.1685L10.0757 26.9783L10.0891 23.3869ZM10.5751 27.1465L10.5864 24.109L13.3138 28.0691L10.5751 27.1465ZM10.0736 27.5296L4.5306 25.6623L10.0507 33.6511L10.0736 27.5296ZM10.549 34.1069L10.573 27.6979L13.8088 28.7879L19.602 37.1998L10.549 34.1069ZM26.8775 11.9065L29.624 15.8944L29.6013 12.8737L26.8775 11.9065ZM29.5971 12.3173L26.3717 11.1719L24.1997 8.01817L29.5512 6.21536L29.5971 12.3173ZM30.1026 13.0517L30.1295 16.6284L32.2544 19.7138L35.5905 15.0004L30.1026 13.0517ZM35.5287 14.4236L30.0985 12.4953L30.0534 6.49955L35.5287 14.4236ZM25.5545 10.8818L20.7566 9.17807L23.6986 8.18697L25.5545 10.8818ZM19.9588 8.89477L23.39 7.73888L20.0485 2.88699L16.7064 7.73985L19.9588 8.89477ZM15.9033 8.00958L13.8843 10.9411L10.6316 12.0369L10.6536 6.14544L15.9033 8.00958ZM16.3993 8.18572L19.1569 9.16492L14.6882 10.6703L16.3993 8.18572ZM24.3361 31.7823L29.6866 24.2225L29.7572 33.6085L24.3361 31.7823ZM30.1814 23.5235L30.2542 33.2098L35.6204 25.4437L35.596 25.4623L32.2489 20.6022L30.1814 23.5235ZM30.1363 17.5347L30.1748 22.6521L31.9416 20.1559L30.1363 17.5347ZM20.6701 2.89318L29.1621 5.79439L23.8911 7.57008L20.6701 2.89318ZM4.31964 15.0095V24.8293L7.70107 19.9194L4.31964 15.0095ZM20.5349 37.153L29.524 34.082L24.0206 32.228L20.5349 37.153ZM23.5174 32.0585L20.0513 36.9557L14.6126 29.0587L23.5174 32.0585ZM32.5618 20.1602L35.6803 24.6883V15.754L32.5618 20.1602ZM10 5.52786L12.8686 1.37638L5.35851 7.11358L10 5.52786ZM5.35852 32.8864L12.8686 38.6236L10 34.4721L5.35852 32.8864ZM9.50001 33.7485L4.31964 26.2514V31.9787L9.50001 33.7485ZM3.81964 25.5278V30.6593L0.951057 21.3764L3.81964 25.5278ZM3.81964 15.3666L0.618034 20L3.81964 24.6334V15.3666ZM3.81964 14.4722L0.951057 18.6236L3.81964 9.34068V14.4722ZM4.31964 13.7486V8.02129L9.50001 6.25146L4.31964 13.7486ZM10.809 34.7485L14.0106 39.382L19.191 37.6122L10.809 34.7485ZM20 37.8885L15.3585 39.4743H24.6415L20 37.8885ZM27.1314 38.6237L34.6415 32.8864L30 34.4721L27.1314 38.6237ZM29.191 34.7485L20.809 37.6122L25.9893 39.382L29.191 34.7485ZM30.5 33.7485L35.6803 31.9787V26.2514L30.5 33.7485ZM36.1803 25.5278V30.6594L39.049 21.3763L36.1803 25.5278ZM39.049 18.6237L36.1803 9.34063V14.4722L39.049 18.6237ZM36.1803 24.6334L39.382 20L36.1803 15.3666V24.6334ZM35.6803 13.7486V8.02129L30.5 6.25146L35.6803 13.7486ZM30 5.52786L34.6415 7.11359L27.1314 1.37635L30 5.52786ZM29.191 5.25146L20.809 2.38785L25.9893 0.618034L29.191 5.25146Z" fill="url(#paint0_linear_2020_1751)"/>
<path d="M55.2557 13.8636V25.5H53.1477V13.8636H55.2557ZM67.1009 13.8636V25.5H65.2259L59.7429 17.5739H59.6463V25.5H57.5384V13.8636H59.4247L64.902 21.7955H65.0043V13.8636H67.1009ZM70.9545 13.8636L73.983 23.0227H74.1023L77.125 13.8636H79.4432L75.3409 25.5H72.7386L68.642 13.8636H70.9545ZM80.9759 25.5V13.8636H88.544V15.6307H83.0838V18.7898H88.152V20.5568H83.0838V23.733H88.5895V25.5H80.9759ZM97.0185 17.0625C96.9654 16.5663 96.742 16.1799 96.348 15.9034C95.9579 15.6269 95.4503 15.4886 94.8253 15.4886C94.3859 15.4886 94.009 15.5549 93.6946 15.6875C93.3802 15.8201 93.1397 16 92.973 16.2273C92.8063 16.4545 92.7211 16.714 92.7173 17.0057C92.7173 17.2481 92.7723 17.4583 92.8821 17.6364C92.9957 17.8144 93.1491 17.9659 93.3423 18.0909C93.5355 18.2121 93.7495 18.3144 93.9844 18.3977C94.2192 18.4811 94.456 18.5511 94.6946 18.608L95.7855 18.8807C96.2249 18.983 96.6473 19.1212 97.0526 19.2955C97.4616 19.4697 97.8272 19.6894 98.1491 19.9545C98.4749 20.2197 98.7325 20.5398 98.9219 20.9148C99.1113 21.2898 99.206 21.7292 99.206 22.233C99.206 22.9148 99.0317 23.5152 98.6832 24.0341C98.3348 24.5492 97.831 24.9527 97.1719 25.2443C96.5166 25.5322 95.723 25.6761 94.7912 25.6761C93.8859 25.6761 93.0999 25.536 92.4332 25.2557C91.7704 24.9754 91.2514 24.5663 90.8764 24.0284C90.5052 23.4905 90.3045 22.8352 90.2741 22.0625H92.348C92.3783 22.4678 92.5033 22.8049 92.723 23.0739C92.9427 23.3428 93.2287 23.5436 93.581 23.6761C93.937 23.8087 94.3348 23.875 94.7741 23.875C95.2325 23.875 95.634 23.8068 95.9787 23.6705C96.3272 23.5303 96.5999 23.3371 96.7969 23.0909C96.9938 22.8409 97.0942 22.5492 97.098 22.2159C97.0942 21.9129 97.0052 21.6629 96.831 21.4659C96.6567 21.2652 96.4124 21.0985 96.098 20.9659C95.7874 20.8295 95.4238 20.7083 95.0071 20.6023L93.6832 20.2614C92.7249 20.0152 91.9673 19.642 91.4105 19.142C90.8575 18.6383 90.581 17.9697 90.581 17.1364C90.581 16.4508 90.7666 15.8504 91.1378 15.3352C91.5128 14.8201 92.0223 14.4205 92.6662 14.1364C93.3101 13.8485 94.0393 13.7045 94.8537 13.7045C95.6795 13.7045 96.4029 13.8485 97.0241 14.1364C97.6491 14.4205 98.1397 14.8163 98.4957 15.3239C98.8518 15.8277 99.0355 16.4072 99.0469 17.0625H97.0185ZM100.574 15.6307V13.8636H109.858V15.6307H106.261V25.5H104.17V15.6307H100.574ZM123.412 17.5795C123.317 17.2727 123.187 16.9981 123.02 16.7557C122.857 16.5095 122.66 16.2992 122.429 16.125C122.202 15.9508 121.94 15.8201 121.645 15.733C121.349 15.642 121.027 15.5966 120.679 15.5966C120.054 15.5966 119.497 15.7538 119.009 16.0682C118.52 16.3826 118.135 16.8447 117.855 17.4545C117.579 18.0606 117.44 18.7992 117.44 19.6705C117.44 20.5492 117.579 21.2936 117.855 21.9034C118.132 22.5133 118.516 22.9773 119.009 23.2955C119.501 23.6098 120.073 23.767 120.724 23.767C121.315 23.767 121.827 23.6534 122.259 23.4261C122.694 23.1989 123.029 22.8769 123.264 22.4602C123.499 22.0398 123.616 21.5473 123.616 20.983L124.094 21.0568H120.935V19.4091H125.656V20.8068C125.656 21.803 125.444 22.6648 125.02 23.392C124.596 24.1193 124.012 24.6799 123.27 25.0739C122.527 25.464 121.675 25.6591 120.713 25.6591C119.641 25.6591 118.7 25.4186 117.889 24.9375C117.082 24.4527 116.452 23.7652 115.997 22.875C115.546 21.9811 115.321 20.9205 115.321 19.6932C115.321 18.7538 115.454 17.9148 115.719 17.1761C115.988 16.4375 116.363 15.8106 116.844 15.2955C117.325 14.7765 117.889 14.3826 118.537 14.1136C119.185 13.8409 119.889 13.7045 120.651 13.7045C121.295 13.7045 121.895 13.7992 122.452 13.9886C123.009 14.1742 123.503 14.4394 123.935 14.7841C124.37 15.1288 124.728 15.5379 125.009 16.0114C125.289 16.4848 125.473 17.0076 125.56 17.5795H123.412ZM127.695 25.5V13.8636H129.803V23.733H134.928V25.5H127.695ZM146.702 19.6818C146.702 20.9356 146.467 22.0095 145.997 22.9034C145.531 23.7936 144.895 24.4754 144.088 24.9489C143.285 25.4223 142.374 25.6591 141.355 25.6591C140.336 25.6591 139.423 25.4223 138.616 24.9489C137.813 24.4716 137.177 23.7879 136.707 22.8977C136.241 22.0038 136.009 20.9318 136.009 19.6818C136.009 18.428 136.241 17.3561 136.707 16.4659C137.177 15.572 137.813 14.8883 138.616 14.4148C139.423 13.9413 140.336 13.7045 141.355 13.7045C142.374 13.7045 143.285 13.9413 144.088 14.4148C144.895 14.8883 145.531 15.572 145.997 16.4659C146.467 17.3561 146.702 18.428 146.702 19.6818ZM144.582 19.6818C144.582 18.7992 144.444 18.0549 144.168 17.4489C143.895 16.839 143.516 16.3788 143.031 16.0682C142.546 15.7538 141.988 15.5966 141.355 15.5966C140.723 15.5966 140.164 15.7538 139.679 16.0682C139.194 16.3788 138.813 16.839 138.537 17.4489C138.264 18.0549 138.128 18.7992 138.128 19.6818C138.128 20.5644 138.264 21.3106 138.537 21.9205C138.813 22.5265 139.194 22.9867 139.679 23.3011C140.164 23.6117 140.723 23.767 141.355 23.767C141.988 23.767 142.546 23.6117 143.031 23.3011C143.516 22.9867 143.895 22.5265 144.168 21.9205C144.444 21.3106 144.582 20.5644 144.582 19.6818ZM148.695 25.5V13.8636H153.149C153.99 13.8636 154.689 13.9962 155.246 14.2614C155.806 14.5227 156.225 14.8807 156.501 15.3352C156.782 15.7898 156.922 16.3049 156.922 16.8807C156.922 17.3542 156.831 17.7595 156.649 18.0966C156.467 18.4299 156.223 18.7008 155.916 18.9091C155.609 19.1174 155.267 19.267 154.888 19.358V19.4716C155.301 19.4943 155.696 19.6212 156.075 19.8523C156.458 20.0795 156.77 20.4015 157.013 20.8182C157.255 21.2348 157.376 21.7386 157.376 22.3295C157.376 22.9318 157.231 23.4735 156.939 23.9545C156.647 24.4318 156.208 24.8087 155.621 25.0852C155.034 25.3617 154.295 25.5 153.405 25.5H148.695ZM150.803 23.7386H153.07C153.835 23.7386 154.386 23.5928 154.723 23.3011C155.064 23.0057 155.234 22.6269 155.234 22.1648C155.234 21.8201 155.149 21.5095 154.979 21.233C154.808 20.9527 154.566 20.733 154.251 20.5739C153.937 20.411 153.562 20.3295 153.126 20.3295H150.803V23.7386ZM150.803 18.8125H152.888C153.251 18.8125 153.579 18.7462 153.871 18.6136C154.162 18.4773 154.392 18.286 154.558 18.0398C154.729 17.7898 154.814 17.4943 154.814 17.1534C154.814 16.7027 154.655 16.3314 154.337 16.0398C154.022 15.7481 153.554 15.6023 152.933 15.6023H150.803V18.8125ZM160.705 25.5H158.455L162.551 13.8636H165.153L169.256 25.5H167.006L163.898 16.25H163.807L160.705 25.5ZM160.778 20.9375H166.915V22.6307H160.778V20.9375ZM170.788 25.5V13.8636H172.896V23.733H178.021V25.5H170.788ZM186.175 17.0625C186.122 16.5663 185.898 16.1799 185.504 15.9034C185.114 15.6269 184.607 15.4886 183.982 15.4886C183.542 15.4886 183.165 15.5549 182.851 15.6875C182.536 15.8201 182.296 16 182.129 16.2273C181.963 16.4545 181.877 16.714 181.874 17.0057C181.874 17.2481 181.929 17.4583 182.038 17.6364C182.152 17.8144 182.305 17.9659 182.499 18.0909C182.692 18.2121 182.906 18.3144 183.141 18.3977C183.375 18.4811 183.612 18.5511 183.851 18.608L184.942 18.8807C185.381 18.983 185.804 19.1212 186.209 19.2955C186.618 19.4697 186.983 19.6894 187.305 19.9545C187.631 20.2197 187.889 20.5398 188.078 20.9148C188.268 21.2898 188.362 21.7292 188.362 22.233C188.362 22.9148 188.188 23.5152 187.839 24.0341C187.491 24.5492 186.987 24.9527 186.328 25.2443C185.673 25.5322 184.879 25.6761 183.947 25.6761C183.042 25.6761 182.256 25.536 181.589 25.2557C180.927 24.9754 180.408 24.5663 180.033 24.0284C179.661 23.4905 179.461 22.8352 179.43 22.0625H181.504C181.535 22.4678 181.66 22.8049 181.879 23.0739C182.099 23.3428 182.385 23.5436 182.737 23.6761C183.093 23.8087 183.491 23.875 183.93 23.875C184.389 23.875 184.79 23.8068 185.135 23.6705C185.483 23.5303 185.756 23.3371 185.953 23.0909C186.15 22.8409 186.25 22.5492 186.254 22.2159C186.25 21.9129 186.161 21.6629 185.987 21.4659C185.813 21.2652 185.569 21.0985 185.254 20.9659C184.944 20.8295 184.58 20.7083 184.163 20.6023L182.839 20.2614C181.881 20.0152 181.124 19.642 180.567 19.142C180.014 18.6383 179.737 17.9697 179.737 17.1364C179.737 16.4508 179.923 15.8504 180.294 15.3352C180.669 14.8201 181.179 14.4205 181.822 14.1364C182.466 13.8485 183.196 13.7045 184.01 13.7045C184.836 13.7045 185.559 13.8485 186.18 14.1364C186.805 14.4205 187.296 14.8163 187.652 15.3239C188.008 15.8277 188.192 16.4072 188.203 17.0625H186.175Z" fill="#1F1E1E"/>
<defs>
<linearGradient id="paint0_linear_2020_1751" x1="0" y1="20" x2="40" y2="20" gradientUnits="userSpaceOnUse">
<stop stop-color="#06B6D4"/>
<stop offset="1" stop-color="#1E40AF"/>
</linearGradient>
</defs>
</svg>
