<svg width="319" height="35" viewBox="0 0 319 35" fill="none" xmlns="http://www.w3.org/2000/svg">
<path d="M9.96449 9.32386H14.5185C16.1491 9.32386 17.5942 9.66856 18.8537 10.358C20.1198 11.0473 21.1108 12.0185 21.8267 13.2713C22.5492 14.5175 22.9105 15.9825 22.9105 17.6662C22.9105 19.2969 22.5492 20.7187 21.8267 21.9318C21.1108 23.1449 20.1198 24.0895 18.8537 24.7656C17.5942 25.4351 16.1491 25.7699 14.5185 25.7699H9.96449C8.32718 25.7699 6.87547 25.4384 5.60938 24.7756C4.34328 24.1061 3.34896 23.1648 2.62642 21.9517C1.91051 20.7386 1.55256 19.3068 1.55256 17.6562C1.55256 15.9725 1.91383 14.5076 2.63636 13.2614C3.36553 12.0085 4.36316 11.0407 5.62926 10.358C6.89536 9.66856 8.34044 9.32386 9.96449 9.32386ZM9.96449 12.9233C9.08949 12.9233 8.31724 13.099 7.64773 13.4503C6.98485 13.795 6.4678 14.3187 6.09659 15.0213C5.72538 15.724 5.53977 16.6023 5.53977 17.6562C5.53977 18.6638 5.72869 19.5024 6.10653 20.1719C6.491 20.8414 7.01468 21.3419 7.67756 21.6733C8.34044 22.0047 9.10275 22.1705 9.96449 22.1705H14.5483C15.4167 22.1705 16.1757 22.0014 16.8253 21.6634C17.4815 21.3253 17.9886 20.8215 18.3466 20.152C18.7112 19.4825 18.8935 18.6539 18.8935 17.6662C18.8935 16.6122 18.7112 15.7339 18.3466 15.0312C17.9886 14.3286 17.4815 13.8016 16.8253 13.4503C16.1757 13.099 15.4167 12.9233 14.5483 12.9233H9.96449ZM14.2798 6.77841V28.3352H10.1932V6.77841H14.2798ZM30.0497 21.9119L35.5483 12.2273H39.7244V27.5H35.6875V17.7855L30.2088 27.5H26.0028V12.2273H30.0497V21.9119ZM53.7493 18.1733V21.5043H45.7749V18.1733H53.7493ZM47.1669 12.2273V27.5H43.12V12.2273H47.1669ZM56.4041 12.2273V27.5H52.3871V12.2273H56.4041ZM64.0455 27.7884C63.071 27.7884 62.2027 27.6193 61.4403 27.2812C60.678 26.9366 60.0748 26.4295 59.6307 25.7599C59.1932 25.0838 58.9744 24.242 58.9744 23.2344C58.9744 22.3859 59.1302 21.6733 59.4418 21.0966C59.7533 20.5199 60.1776 20.0559 60.7145 19.7045C61.2514 19.3532 61.8613 19.0881 62.544 18.9091C63.2334 18.7301 63.956 18.6042 64.7116 18.5312C65.5999 18.4384 66.3158 18.3523 66.8594 18.2727C67.4029 18.1866 67.7973 18.0606 68.0426 17.8949C68.2879 17.7292 68.4105 17.4839 68.4105 17.1591V17.0994C68.4105 16.4697 68.2116 15.9825 67.8139 15.6378C67.4228 15.2931 66.866 15.1207 66.1435 15.1207C65.3812 15.1207 64.7746 15.2898 64.3239 15.6278C63.8731 15.9593 63.5748 16.3769 63.429 16.8807L59.5114 16.5625C59.7102 15.6345 60.1013 14.8324 60.6847 14.1562C61.268 13.4735 62.0204 12.9498 62.9418 12.5852C63.8698 12.214 64.9437 12.0284 66.1634 12.0284C67.0118 12.0284 67.8239 12.1278 68.5994 12.3267C69.3816 12.5256 70.0743 12.8338 70.6776 13.2514C71.2874 13.669 71.768 14.206 72.1193 14.8622C72.4706 15.5118 72.6463 16.2907 72.6463 17.1989V27.5H68.6293V25.3821H68.5099C68.2647 25.8594 67.9366 26.2803 67.5256 26.6449C67.1146 27.0028 66.6207 27.2846 66.044 27.4901C65.4673 27.6889 64.8011 27.7884 64.0455 27.7884ZM65.2585 24.8651C65.8816 24.8651 66.4318 24.7424 66.9091 24.4972C67.3864 24.2453 67.7609 23.9072 68.0327 23.483C68.3045 23.0587 68.4403 22.5781 68.4403 22.0412V20.4205C68.3078 20.5066 68.1255 20.5862 67.8935 20.6591C67.6681 20.7254 67.4129 20.7884 67.1278 20.848C66.8428 20.901 66.5578 20.9508 66.2727 20.9972C65.9877 21.0369 65.7292 21.0734 65.4972 21.1065C65 21.1795 64.5658 21.2955 64.1946 21.4545C63.8234 21.6136 63.535 21.8291 63.3295 22.1009C63.1241 22.366 63.0213 22.6974 63.0213 23.0952C63.0213 23.6719 63.2301 24.1127 63.6477 24.4176C64.072 24.7159 64.6089 24.8651 65.2585 24.8651ZM86.5618 18.1733V21.5043H78.5874V18.1733H86.5618ZM79.9794 12.2273V27.5H75.9325V12.2273H79.9794ZM89.2166 12.2273V27.5H85.1996V12.2273H89.2166ZM99.4034 27.7983C97.839 27.7983 96.4934 27.4669 95.3665 26.804C94.2462 26.1345 93.3845 25.2064 92.7812 24.0199C92.1847 22.8333 91.8864 21.4678 91.8864 19.9233C91.8864 18.3589 92.188 16.9867 92.7912 15.8068C93.401 14.6203 94.2661 13.6955 95.3864 13.0327C96.5066 12.3632 97.839 12.0284 99.3835 12.0284C100.716 12.0284 101.883 12.2704 102.884 12.7543C103.884 13.2382 104.677 13.9176 105.26 14.7926C105.843 15.6676 106.165 16.6951 106.224 17.875H102.227C102.115 17.1127 101.816 16.4995 101.332 16.0355C100.855 15.5649 100.229 15.3295 99.4531 15.3295C98.7969 15.3295 98.2235 15.5085 97.733 15.8665C97.2491 16.2178 96.8712 16.7315 96.5994 17.4077C96.3277 18.0838 96.1918 18.9025 96.1918 19.8636C96.1918 20.8381 96.3243 21.6667 96.5895 22.3494C96.8613 23.0322 97.2424 23.5526 97.733 23.9105C98.2235 24.2685 98.7969 24.4474 99.4531 24.4474C99.937 24.4474 100.371 24.348 100.756 24.1491C101.147 23.9503 101.468 23.6619 101.72 23.2841C101.979 22.8996 102.148 22.4389 102.227 21.902H106.224C106.158 23.0687 105.84 24.0961 105.27 24.9844C104.706 25.866 103.928 26.5554 102.933 27.0526C101.939 27.5497 100.762 27.7983 99.4034 27.7983ZM115.837 27.7983C114.292 27.7983 112.957 27.4702 111.83 26.8139C110.71 26.151 109.845 25.2296 109.235 24.0497C108.625 22.8632 108.32 21.4877 108.32 19.9233C108.32 18.3456 108.625 16.9669 109.235 15.7869C109.845 14.6004 110.71 13.679 111.83 13.0227C112.957 12.3598 114.292 12.0284 115.837 12.0284C117.382 12.0284 118.714 12.3598 119.834 13.0227C120.961 13.679 121.829 14.6004 122.439 15.7869C123.049 16.9669 123.354 18.3456 123.354 19.9233C123.354 21.4877 123.049 22.8632 122.439 24.0497C121.829 25.2296 120.961 26.151 119.834 26.8139C118.714 27.4702 117.382 27.7983 115.837 27.7983ZM115.857 24.517C116.56 24.517 117.146 24.3182 117.617 23.9205C118.087 23.5161 118.442 22.9659 118.681 22.2699C118.926 21.5739 119.049 20.7817 119.049 19.8935C119.049 19.0052 118.926 18.2131 118.681 17.517C118.442 16.821 118.087 16.2708 117.617 15.8665C117.146 15.4621 116.56 15.2599 115.857 15.2599C115.148 15.2599 114.551 15.4621 114.067 15.8665C113.59 16.2708 113.229 16.821 112.983 17.517C112.745 18.2131 112.625 19.0052 112.625 19.8935C112.625 20.7817 112.745 21.5739 112.983 22.2699C113.229 22.9659 113.59 23.5161 114.067 23.9205C114.551 24.3182 115.148 24.517 115.857 24.517ZM126.108 27.5V12.2273H132.621C134.504 12.2273 135.992 12.5852 137.086 13.3011C138.179 14.017 138.726 15.0346 138.726 16.3537C138.726 17.1823 138.418 17.8717 137.801 18.4219C137.185 18.9721 136.33 19.3433 135.236 19.5355C136.151 19.6018 136.93 19.8106 137.573 20.1619C138.222 20.5066 138.716 20.9541 139.054 21.5043C139.399 22.0545 139.571 22.6643 139.571 23.3338C139.571 24.2022 139.339 24.9479 138.875 25.571C138.418 26.1941 137.745 26.6714 136.857 27.0028C135.975 27.3343 134.898 27.5 133.625 27.5H126.108ZM130.056 24.3281H133.625C134.215 24.3281 134.676 24.1889 135.007 23.9105C135.346 23.6255 135.515 23.2377 135.515 22.7472C135.515 22.2036 135.346 21.776 135.007 21.4645C134.676 21.1529 134.215 20.9972 133.625 20.9972H130.056V24.3281ZM130.056 18.5114H132.711C133.135 18.5114 133.496 18.4517 133.794 18.3324C134.099 18.2064 134.331 18.0275 134.49 17.7955C134.656 17.5634 134.739 17.2884 134.739 16.9702C134.739 16.4995 134.55 16.1316 134.172 15.8665C133.794 15.6013 133.277 15.4688 132.621 15.4688H130.056V18.5114ZM144.896 16.9205H149.46C151.482 16.9205 153.059 17.4044 154.193 18.3722C155.326 19.3333 155.893 20.6193 155.893 22.2301C155.893 23.2775 155.638 24.1989 155.127 24.9943C154.617 25.7831 153.881 26.3996 152.92 26.8438C151.959 27.2812 150.806 27.5 149.46 27.5H142.241V12.2273H146.288V24.169H149.46C150.169 24.169 150.752 23.9901 151.21 23.6321C151.667 23.2741 151.899 22.8168 151.906 22.2599C151.899 21.67 151.667 21.1894 151.21 20.8182C150.752 20.4403 150.169 20.2514 149.46 20.2514H144.896V16.9205ZM157.534 27.5V12.2273H161.77V27.5H157.534ZM169.202 21.9119L174.701 12.2273H178.877V27.5H174.84V17.7855L169.361 27.5H165.155V12.2273H169.202V21.9119ZM173.975 6.89773H176.928C176.921 8.10417 176.474 9.07528 175.586 9.81108C174.704 10.5469 173.511 10.9148 172.006 10.9148C170.495 10.9148 169.298 10.5469 168.417 9.81108C167.535 9.07528 167.094 8.10417 167.094 6.89773H170.027C170.021 7.35511 170.167 7.7661 170.465 8.13068C170.77 8.49526 171.283 8.67756 172.006 8.67756C172.709 8.67756 173.212 8.49858 173.517 8.14062C173.822 7.78267 173.975 7.36837 173.975 6.89773ZM195.653 27.7983C194.089 27.7983 192.743 27.4669 191.616 26.804C190.496 26.1345 189.634 25.2064 189.031 24.0199C188.435 22.8333 188.136 21.4678 188.136 19.9233C188.136 18.3589 188.438 16.9867 189.041 15.8068C189.651 14.6203 190.516 13.6955 191.636 13.0327C192.757 12.3632 194.089 12.0284 195.634 12.0284C196.966 12.0284 198.133 12.2704 199.134 12.7543C200.134 13.2382 200.927 13.9176 201.51 14.7926C202.093 15.6676 202.415 16.6951 202.474 17.875H198.477C198.365 17.1127 198.066 16.4995 197.582 16.0355C197.105 15.5649 196.479 15.3295 195.703 15.3295C195.047 15.3295 194.473 15.5085 193.983 15.8665C193.499 16.2178 193.121 16.7315 192.849 17.4077C192.578 18.0838 192.442 18.9025 192.442 19.8636C192.442 20.8381 192.574 21.6667 192.839 22.3494C193.111 23.0322 193.492 23.5526 193.983 23.9105C194.473 24.2685 195.047 24.4474 195.703 24.4474C196.187 24.4474 196.621 24.348 197.006 24.1491C197.397 23.9503 197.718 23.6619 197.97 23.2841C198.229 22.8996 198.398 22.4389 198.477 21.902H202.474C202.408 23.0687 202.09 24.0961 201.52 24.9844C200.956 25.866 200.178 26.5554 199.183 27.0526C198.189 27.5497 197.012 27.7983 195.653 27.7983ZM212.087 27.7983C210.542 27.7983 209.207 27.4702 208.08 26.8139C206.96 26.151 206.095 25.2296 205.485 24.0497C204.875 22.8632 204.57 21.4877 204.57 19.9233C204.57 18.3456 204.875 16.9669 205.485 15.7869C206.095 14.6004 206.96 13.679 208.08 13.0227C209.207 12.3598 210.542 12.0284 212.087 12.0284C213.632 12.0284 214.964 12.3598 216.084 13.0227C217.211 13.679 218.079 14.6004 218.689 15.7869C219.299 16.9669 219.604 18.3456 219.604 19.9233C219.604 21.4877 219.299 22.8632 218.689 24.0497C218.079 25.2296 217.211 26.151 216.084 26.8139C214.964 27.4702 213.632 27.7983 212.087 27.7983ZM212.107 24.517C212.81 24.517 213.396 24.3182 213.867 23.9205C214.337 23.5161 214.692 22.9659 214.931 22.2699C215.176 21.5739 215.299 20.7817 215.299 19.8935C215.299 19.0052 215.176 18.2131 214.931 17.517C214.692 16.821 214.337 16.2708 213.867 15.8665C213.396 15.4621 212.81 15.2599 212.107 15.2599C211.398 15.2599 210.801 15.4621 210.317 15.8665C209.84 16.2708 209.479 16.821 209.233 17.517C208.995 18.2131 208.875 19.0052 208.875 19.8935C208.875 20.7817 208.995 21.5739 209.233 22.2699C209.479 22.9659 209.84 23.5161 210.317 23.9205C210.801 24.3182 211.398 24.517 212.107 24.517ZM222.358 27.5V12.2273H228.871C230.754 12.2273 232.242 12.5852 233.336 13.3011C234.429 14.017 234.976 15.0346 234.976 16.3537C234.976 17.1823 234.668 17.8717 234.051 18.4219C233.435 18.9721 232.58 19.3433 231.486 19.5355C232.401 19.6018 233.18 19.8106 233.823 20.1619C234.472 20.5066 234.966 20.9541 235.304 21.5043C235.649 22.0545 235.821 22.6643 235.821 23.3338C235.821 24.2022 235.589 24.9479 235.125 25.571C234.668 26.1941 233.995 26.6714 233.107 27.0028C232.225 27.3343 231.148 27.5 229.875 27.5H222.358ZM226.306 24.3281H229.875C230.465 24.3281 230.926 24.1889 231.257 23.9105C231.596 23.6255 231.765 23.2377 231.765 22.7472C231.765 22.2036 231.596 21.776 231.257 21.4645C230.926 21.1529 230.465 20.9972 229.875 20.9972H226.306V24.3281ZM226.306 18.5114H228.961C229.385 18.5114 229.746 18.4517 230.044 18.3324C230.349 18.2064 230.581 18.0275 230.74 17.7955C230.906 17.5634 230.989 17.2884 230.989 16.9702C230.989 16.4995 230.8 16.1316 230.422 15.8665C230.044 15.6013 229.527 15.4688 228.871 15.4688H226.306V18.5114ZM245.451 27.7983C243.88 27.7983 242.528 27.4801 241.395 26.8438C240.268 26.2008 239.399 25.2926 238.789 24.1193C238.18 22.9394 237.875 21.544 237.875 19.9332C237.875 18.3622 238.18 16.9834 238.789 15.7969C239.399 14.6103 240.258 13.6856 241.365 13.0227C242.478 12.3598 243.784 12.0284 245.282 12.0284C246.29 12.0284 247.228 12.1908 248.096 12.5156C248.971 12.8338 249.734 13.3144 250.383 13.9574C251.039 14.6004 251.55 15.4091 251.914 16.3835C252.279 17.3513 252.461 18.4848 252.461 19.7841V20.9474H239.565V18.3224H248.474C248.474 17.7126 248.342 17.1723 248.076 16.7017C247.811 16.2311 247.443 15.8632 246.973 15.598C246.509 15.3262 245.968 15.1903 245.352 15.1903C244.709 15.1903 244.139 15.3395 243.642 15.6378C243.151 15.9295 242.767 16.3239 242.488 16.821C242.21 17.3116 242.067 17.8584 242.061 18.4616V20.9574C242.061 21.7131 242.2 22.366 242.478 22.9162C242.763 23.4664 243.164 23.8906 243.681 24.1889C244.199 24.4872 244.812 24.6364 245.521 24.6364C245.992 24.6364 246.422 24.5701 246.814 24.4375C247.205 24.3049 247.539 24.1061 247.818 23.8409C248.096 23.5758 248.308 23.2509 248.454 22.8665L252.372 23.125C252.173 24.0663 251.765 24.8883 251.149 25.5909C250.539 26.2869 249.75 26.8305 248.782 27.2216C247.821 27.6061 246.711 27.7983 245.451 27.7983ZM254.047 15.5582V12.2273H267.888V15.5582H262.966V27.5H258.929V15.5582H254.047ZM281.085 18.1733V21.5043H273.111V18.1733H281.085ZM274.503 12.2273V27.5H270.456V12.2273H274.503ZM283.74 12.2273V27.5H279.723V12.2273H283.74ZM291.073 21.9119L296.572 12.2273H300.748V27.5H296.711V17.7855L291.232 27.5H287.026V12.2273H291.073V21.9119ZM304.143 27.5V12.2273H308.379V18.1534H309.572L313.729 12.2273H318.7L313.301 19.804L318.76 27.5H313.729L309.96 22.081H308.379V27.5H304.143Z" fill="url(#paint0_linear_2245_928)"/>
<defs>
<linearGradient id="paint0_linear_2245_928" x1="0" y1="0.5" x2="7.16624" y2="67.7362" gradientUnits="userSpaceOnUse">
<stop stop-color="white"/>
<stop offset="1" stop-color="#9E9EA9"/>
</linearGradient>
</defs>
</svg>
