<svg width="190" height="52" viewBox="0 0 190 52" fill="none" xmlns="http://www.w3.org/2000/svg">
<path d="M24.1194 28.842V36.6254C24.1194 38.8605 23.4521 40.9693 22.1173 42.9517H31.2967C31.0469 42.9911 30.4186 43.4571 29.4117 44.3496C27.4837 46.024 26.2621 46.8611 25.7469 46.8611H15.7713C17.6759 44.8551 18.6282 42.3791 18.6282 39.4331V32.1117C18.6282 30.2399 17.5432 27.0294 15.3732 22.4802C13.1096 17.7572 10.7484 14.0452 8.28959 11.3441C6.45527 9.32222 4.85121 8.31128 3.47741 8.31128C2.58757 8.31128 1.42843 8.78121 0 9.72106C2.98956 6.34864 5.93229 4.66243 8.82818 4.66243C10.4518 4.66243 11.8919 5.40483 13.1486 6.88965C15.9508 10.2226 18.6165 14.5783 21.1455 19.9568C22.3319 22.5078 23.1984 24.7666 23.7448 26.7332C27.3666 21.9471 29.6653 17.9823 30.641 14.8389C30.8908 14.0333 31.0157 13.3265 31.0157 12.7183C31.0157 12.1102 30.9377 11.5455 30.7816 11.0242C30.6254 10.503 30.3874 10.0488 30.0673 9.66183C29.4039 8.85624 28.4789 8.45344 27.2924 8.45344C26.7226 8.45344 26.2074 8.52057 25.7469 8.65484C26.1684 8.53637 26.6133 8.25204 27.0817 7.80186C27.55 7.35168 28.0496 6.88175 28.5804 6.39208C30.0088 5.1442 31.3397 4.52026 32.5729 4.52026C33.7984 4.52026 34.7624 4.85988 35.4649 5.5391C36.1752 6.22622 36.5304 7.09499 36.5304 8.14542C36.5304 9.19585 36.2962 10.3095 35.8279 11.4862C35.3596 12.663 34.7585 13.8912 34.0248 15.1706C33.2911 16.458 32.4637 17.7612 31.5426 19.0801C30.6137 20.3991 29.6927 21.6667 28.7794 22.883C27.8661 24.0993 26.9958 25.2208 26.1684 26.2475C25.341 27.2821 24.658 28.147 24.1194 28.842ZM45.6747 9.1761H40.3239C43.4306 6.55399 45.2805 5.24293 45.8738 5.24293H70.8245C70.5591 5.28242 70.1532 5.54305 69.6068 6.02482C69.0682 6.5066 68.6077 6.91334 68.2252 7.24506C67.8427 7.58467 67.472 7.88874 67.1129 8.15727C66.2543 8.83649 65.6337 9.1761 65.2513 9.1761H51.2479V24.9088H65.1108C64.861 24.9483 64.459 25.2129 63.9048 25.7025C63.3584 26.1922 62.894 26.6029 62.5115 26.9346C62.129 27.2584 61.7582 27.5665 61.3992 27.8587C60.5562 28.53 59.9356 28.8657 59.5375 28.8657H51.2479V35.6421C51.2479 39.1093 50.561 41.5379 49.1873 42.928H58.3667C58.1013 42.9674 57.6954 43.2281 57.149 43.7099C56.6026 44.1916 56.1421 44.6023 55.7674 44.9419C55.3849 45.2737 55.0103 45.5856 54.6434 45.8778C53.7848 46.5334 53.1681 46.8611 52.7935 46.8611H43.0989C44.8161 44.16 45.6747 41.8578 45.6747 39.9544V28.8657H41.6704C43.0052 27.7916 44.3399 26.7332 45.6747 25.6907V9.1761Z" fill="url(#paint0_linear_2296_947)"/>
<path d="M95.1724 5.21558H98.8348L102.361 11.9457H102.512L106.039 5.21558H109.701L104.06 15.3184V20.8429H100.813V15.3184L95.1724 5.21558Z" fill="url(#paint1_linear_2296_947)"/>
<path d="M114.238 21.0718C113.065 21.0718 112.05 20.82 111.195 20.3164C110.344 19.8077 109.687 19.1006 109.224 18.1951C108.76 17.2845 108.529 16.229 108.529 15.0285C108.529 13.8177 108.76 12.7596 109.224 11.8541C109.687 10.9436 110.344 10.2365 111.195 9.73286C112.05 9.22415 113.065 8.9698 114.238 8.9698C115.411 8.9698 116.423 9.22415 117.273 9.73286C118.129 10.2365 118.789 10.9436 119.252 11.8541C119.715 12.7596 119.947 13.8177 119.947 15.0285C119.947 16.229 119.715 17.2845 119.252 18.1951C118.789 19.1006 118.129 19.8077 117.273 20.3164C116.423 20.82 115.411 21.0718 114.238 21.0718ZM114.253 18.5538C114.786 18.5538 115.232 18.4012 115.589 18.0959C115.947 17.7856 116.216 17.3634 116.397 16.8293C116.584 16.2951 116.677 15.6872 116.677 15.0056C116.677 14.3239 116.584 13.716 116.397 13.1819C116.216 12.6477 115.947 12.2255 115.589 11.9152C115.232 11.6049 114.786 11.4497 114.253 11.4497C113.714 11.4497 113.261 11.6049 112.894 11.9152C112.531 12.2255 112.257 12.6477 112.07 13.1819C111.889 13.716 111.799 14.3239 111.799 15.0056C111.799 15.6872 111.889 16.2951 112.07 16.8293C112.257 17.3634 112.531 17.7856 112.894 18.0959C113.261 18.4012 113.714 18.5538 114.253 18.5538Z" fill="url(#paint2_linear_2296_947)"/>
<path d="M129.476 15.8526V9.12241H132.693V20.8429H129.605V18.714H129.484C129.222 19.4008 128.787 19.9527 128.178 20.3698C127.573 20.787 126.836 20.9955 125.965 20.9955C125.19 20.9955 124.508 20.8175 123.919 20.4614C123.33 20.1053 122.869 19.5991 122.537 18.9429C122.209 18.2867 122.043 17.5007 122.038 16.5851V9.12241H125.255V16.0052C125.26 16.697 125.444 17.2439 125.806 17.6457C126.169 18.0476 126.655 18.2485 127.264 18.2485C127.651 18.2485 128.014 18.1595 128.351 17.9815C128.689 17.7983 128.96 17.5287 129.167 17.1726C129.378 16.8165 129.481 16.3765 129.476 15.8526Z" fill="url(#paint3_linear_2296_947)"/>
<path d="M96.0785 46.8429V31.2156H106.318V33.9397H99.3483V37.6634H105.639V40.3875H99.3483V46.8429H96.0785Z" fill="url(#paint4_linear_2296_947)"/>
<path d="M108.457 46.8429V35.1224H111.674V46.8429H108.457ZM110.073 33.6116C109.595 33.6116 109.185 33.4513 108.842 33.1308C108.505 32.8053 108.336 32.4161 108.336 31.9634C108.336 31.5157 108.505 31.1316 108.842 30.8112C109.185 30.4856 109.595 30.3228 110.073 30.3228C110.551 30.3228 110.959 30.4856 111.296 30.8112C111.639 31.1316 111.81 31.5157 111.81 31.9634C111.81 32.4161 111.639 32.8053 111.296 33.1308C110.959 33.4513 110.551 33.6116 110.073 33.6116Z" fill="url(#paint5_linear_2296_947)"/>
<path d="M117.468 40.067V46.8429H114.251V35.1224H117.317V37.1903H117.453C117.709 36.5086 118.14 35.9694 118.744 35.5726C119.348 35.1707 120.081 34.9698 120.941 34.9698C121.747 34.9698 122.449 35.1478 123.048 35.5039C123.647 35.86 124.113 36.3687 124.445 37.03C124.778 37.6863 124.944 38.4697 124.944 39.3803V46.8429H121.727V39.9602C121.732 39.2429 121.551 38.6833 121.183 38.2815C120.816 37.8745 120.31 37.671 119.665 37.671C119.232 37.671 118.85 37.7651 118.517 37.9533C118.19 38.1416 117.933 38.4163 117.747 38.7774C117.566 39.1335 117.473 39.5634 117.468 40.067Z" fill="url(#paint6_linear_2296_947)"/>
<path d="M130.787 47.0642C130.047 47.0642 129.387 46.9345 128.808 46.6751C128.229 46.4105 127.771 46.0214 127.434 45.5076C127.101 44.9887 126.935 44.3427 126.935 43.5694C126.935 42.9183 127.054 42.3714 127.29 41.9289C127.527 41.4863 127.849 41.1302 128.257 40.8606C128.665 40.591 129.128 40.3875 129.646 40.2501C130.17 40.1128 130.719 40.0161 131.293 39.9602C131.967 39.889 132.511 39.8228 132.924 39.7618C133.336 39.6957 133.636 39.599 133.822 39.4718C134.008 39.3446 134.102 39.1564 134.102 38.9072V38.8614C134.102 38.3781 133.951 38.0042 133.649 37.7397C133.352 37.4752 132.929 37.3429 132.38 37.3429C131.801 37.3429 131.34 37.4726 130.998 37.7321C130.656 37.9864 130.429 38.3069 130.318 38.6935L127.343 38.4493C127.494 37.7371 127.791 37.1216 128.234 36.6027C128.677 36.0788 129.249 35.6769 129.948 35.3971C130.653 35.1122 131.469 34.9698 132.395 34.9698C133.039 34.9698 133.656 35.0461 134.245 35.1987C134.839 35.3513 135.365 35.5879 135.823 35.9084C136.286 36.2288 136.651 36.6409 136.918 37.1445C137.185 37.643 137.319 38.2408 137.319 38.9377V46.8429H134.268V45.2176H134.177C133.991 45.5839 133.742 45.9069 133.43 46.1867C133.117 46.4614 132.742 46.6776 132.304 46.8353C131.866 46.9879 131.36 47.0642 130.787 47.0642ZM131.708 44.8208C132.181 44.8208 132.599 44.7267 132.961 44.5385C133.324 44.3452 133.608 44.0858 133.815 43.7602C134.021 43.4346 134.124 43.0658 134.124 42.6538V41.41C134.024 41.4761 133.885 41.5372 133.709 41.5931C133.538 41.644 133.344 41.6923 133.127 41.7381C132.911 41.7788 132.695 41.8169 132.478 41.8525C132.262 41.8831 132.065 41.911 131.889 41.9365C131.511 41.9924 131.182 42.0815 130.9 42.2036C130.618 42.3256 130.399 42.491 130.243 42.6995C130.087 42.903 130.009 43.1574 130.009 43.4626C130.009 43.9052 130.167 44.2435 130.485 44.4775C130.807 44.7064 131.214 44.8208 131.708 44.8208Z" fill="url(#paint7_linear_2296_947)"/>
<path d="M143.031 40.067V46.8429H139.814V35.1224H142.88V37.1903H143.016C143.273 36.5086 143.703 35.9694 144.307 35.5726C144.911 35.1707 145.644 34.9698 146.505 34.9698C147.31 34.9698 148.013 35.1478 148.612 35.5039C149.211 35.86 149.676 36.3687 150.009 37.03C150.341 37.6863 150.507 38.4697 150.507 39.3803V46.8429H147.29V39.9602C147.295 39.2429 147.114 38.6833 146.746 38.2815C146.379 37.8745 145.873 37.671 145.229 37.671C144.796 37.671 144.413 37.7651 144.081 37.9533C143.754 38.1416 143.497 38.4163 143.311 38.7774C143.129 39.1335 143.036 39.5634 143.031 40.067Z" fill="url(#paint8_linear_2296_947)"/>
<path d="M158.283 47.0718C157.095 47.0718 156.073 46.8175 155.217 46.3088C154.366 45.795 153.712 45.0828 153.254 44.1722C152.801 43.2617 152.574 42.2137 152.574 41.0285C152.574 39.8279 152.803 38.7749 153.261 37.8694C153.725 36.9588 154.381 36.2492 155.232 35.7405C156.083 35.2267 157.095 34.9698 158.268 34.9698C159.28 34.9698 160.166 35.1555 160.926 35.5268C161.686 35.8982 162.288 36.4196 162.731 37.0911C163.174 37.7626 163.418 38.5511 163.463 39.4566H160.428C160.342 38.8716 160.115 38.401 159.748 38.0449C159.386 37.6837 158.91 37.5031 158.321 37.5031C157.822 37.5031 157.387 37.6405 157.014 37.9152C156.647 38.1848 156.36 38.579 156.154 39.0979C155.947 39.6168 155.844 40.245 155.844 40.9827C155.844 41.7305 155.945 42.3663 156.146 42.8903C156.352 43.4143 156.642 43.8136 157.014 44.0883C157.387 44.363 157.822 44.5003 158.321 44.5003C158.688 44.5003 159.018 44.424 159.31 44.2714C159.607 44.1188 159.851 43.8975 160.042 43.6076C160.239 43.3125 160.367 42.959 160.428 42.5469H163.463C163.413 43.4422 163.171 44.2307 162.738 44.9124C162.31 45.589 161.719 46.118 160.964 46.4995C160.209 46.8811 159.315 47.0718 158.283 47.0718Z" fill="url(#paint9_linear_2296_947)"/>
<path d="M170.809 47.0718C169.616 47.0718 168.589 46.8277 167.728 46.3393C166.872 45.8459 166.213 45.1489 165.749 44.2485C165.286 43.343 165.055 42.2722 165.055 41.0361C165.055 39.8305 165.286 38.7724 165.749 37.8618C166.213 36.9512 166.865 36.2416 167.705 35.7329C168.551 35.2242 169.543 34.9698 170.681 34.9698C171.446 34.9698 172.158 35.0944 172.818 35.3437C173.482 35.5879 174.061 35.9567 174.554 36.4501C175.053 36.9436 175.44 37.5642 175.717 38.312C175.994 39.0547 176.133 39.9246 176.133 40.9216V41.8144H166.338V39.7999H173.104C173.104 39.3319 173.004 38.9173 172.802 38.5562C172.601 38.195 172.322 37.9126 171.964 37.7092C171.612 37.5006 171.202 37.3963 170.733 37.3963C170.245 37.3963 169.812 37.5108 169.435 37.7397C169.062 37.9635 168.77 38.2662 168.559 38.6477C168.347 39.0242 168.239 39.4438 168.234 39.9068V41.822C168.234 42.4019 168.34 42.903 168.551 43.3252C168.767 43.7475 169.072 44.073 169.465 44.302C169.857 44.5309 170.323 44.6453 170.862 44.6453C171.219 44.6453 171.546 44.5945 171.843 44.4927C172.14 44.391 172.395 44.2384 172.606 44.0349C172.818 43.8314 172.979 43.5821 173.089 43.2871L176.065 43.4855C175.914 44.2078 175.604 44.8386 175.136 45.3779C174.673 45.912 174.074 46.3291 173.339 46.6293C172.609 46.9243 171.765 47.0718 170.809 47.0718Z" fill="url(#paint10_linear_2296_947)"/>
<path d="M187.883 38.4646L184.938 38.6477C184.887 38.3934 184.779 38.1645 184.613 37.961C184.447 37.7524 184.228 37.5871 183.956 37.465C183.689 37.3378 183.369 37.2742 182.997 37.2742C182.498 37.2742 182.078 37.3811 181.736 37.5947C181.393 37.8033 181.222 38.0831 181.222 38.4341C181.222 38.7139 181.333 38.9504 181.554 39.1437C181.776 39.337 182.156 39.4922 182.695 39.6092L184.794 40.0365C185.922 40.2705 186.762 40.6469 187.316 41.1658C187.87 41.6847 188.147 42.3663 188.147 43.2108C188.147 43.9789 187.923 44.653 187.475 45.2329C187.032 45.8128 186.423 46.2655 185.647 46.5911C184.877 46.9116 183.989 47.0718 182.982 47.0718C181.446 47.0718 180.223 46.7488 179.312 46.1028C178.406 45.4516 177.874 44.5665 177.718 43.4473L180.882 43.2795C180.978 43.7526 181.21 44.1137 181.577 44.363C181.945 44.6072 182.415 44.7293 182.989 44.7293C183.553 44.7293 184.006 44.6199 184.349 44.4011C184.696 44.1773 184.872 43.8899 184.877 43.5389C184.872 43.2439 184.749 43.0022 184.507 42.814C184.265 42.6207 183.893 42.4732 183.389 42.3714L181.381 41.967C180.248 41.7381 179.405 41.3413 178.851 40.7766C178.302 40.212 178.028 39.4922 178.028 38.6172C178.028 37.8643 178.229 37.2157 178.632 36.6714C179.04 36.1271 179.611 35.7074 180.346 35.4124C181.086 35.1173 181.952 34.9698 182.944 34.9698C184.409 34.9698 185.562 35.2827 186.402 35.9084C187.248 36.5341 187.742 37.3861 187.883 38.4646Z" fill="url(#paint11_linear_2296_947)"/>
<path d="M83.0386 5.15698L83.0386 46.8429" stroke="#046E65" stroke-width="3"/>
<defs>
<linearGradient id="paint0_linear_2296_947" x1="0" y1="25.6907" x2="70.8245" y2="25.6907" gradientUnits="userSpaceOnUse">
<stop stop-color="#0696D4"/>
<stop offset="1" stop-color="#046C60"/>
</linearGradient>
<linearGradient id="paint1_linear_2296_947" x1="95.1724" y1="5.21558" x2="126.508" y2="74.821" gradientUnits="userSpaceOnUse">
<stop stop-color="white"/>
<stop offset="1" stop-color="#9E9EA9"/>
</linearGradient>
<linearGradient id="paint2_linear_2296_947" x1="95.1724" y1="5.21558" x2="126.508" y2="74.821" gradientUnits="userSpaceOnUse">
<stop stop-color="white"/>
<stop offset="1" stop-color="#9E9EA9"/>
</linearGradient>
<linearGradient id="paint3_linear_2296_947" x1="95.1724" y1="5.21558" x2="126.508" y2="74.821" gradientUnits="userSpaceOnUse">
<stop stop-color="white"/>
<stop offset="1" stop-color="#9E9EA9"/>
</linearGradient>
<linearGradient id="paint4_linear_2296_947" x1="95.1724" y1="5.21558" x2="126.508" y2="74.821" gradientUnits="userSpaceOnUse">
<stop stop-color="white"/>
<stop offset="1" stop-color="#9E9EA9"/>
</linearGradient>
<linearGradient id="paint5_linear_2296_947" x1="95.1724" y1="5.21558" x2="126.508" y2="74.821" gradientUnits="userSpaceOnUse">
<stop stop-color="white"/>
<stop offset="1" stop-color="#9E9EA9"/>
</linearGradient>
<linearGradient id="paint6_linear_2296_947" x1="95.1724" y1="5.21558" x2="126.508" y2="74.821" gradientUnits="userSpaceOnUse">
<stop stop-color="white"/>
<stop offset="1" stop-color="#9E9EA9"/>
</linearGradient>
<linearGradient id="paint7_linear_2296_947" x1="95.1724" y1="5.21558" x2="126.508" y2="74.821" gradientUnits="userSpaceOnUse">
<stop stop-color="white"/>
<stop offset="1" stop-color="#9E9EA9"/>
</linearGradient>
<linearGradient id="paint8_linear_2296_947" x1="95.1724" y1="5.21558" x2="126.508" y2="74.821" gradientUnits="userSpaceOnUse">
<stop stop-color="white"/>
<stop offset="1" stop-color="#9E9EA9"/>
</linearGradient>
<linearGradient id="paint9_linear_2296_947" x1="95.1724" y1="5.21558" x2="126.508" y2="74.821" gradientUnits="userSpaceOnUse">
<stop stop-color="white"/>
<stop offset="1" stop-color="#9E9EA9"/>
</linearGradient>
<linearGradient id="paint10_linear_2296_947" x1="95.1724" y1="5.21558" x2="126.508" y2="74.821" gradientUnits="userSpaceOnUse">
<stop stop-color="white"/>
<stop offset="1" stop-color="#9E9EA9"/>
</linearGradient>
<linearGradient id="paint11_linear_2296_947" x1="95.1724" y1="5.21558" x2="126.508" y2="74.821" gradientUnits="userSpaceOnUse">
<stop stop-color="white"/>
<stop offset="1" stop-color="#9E9EA9"/>
</linearGradient>
</defs>
</svg>
