<svg width="205" height="57" viewBox="0 0 205 57" fill="none" xmlns="http://www.w3.org/2000/svg">
<g clip-path="url(#clip0_2203_1520)">
<path d="M199.192 57H5.80819C2.60463 57 0 54.3785 0 51.1542V5.84579C0 2.6215 2.60463 0 5.80819 0H199.192C202.395 0 205 2.6215 205 5.84579V51.1542C205 54.3785 202.395 57 199.192 57Z" fill="#333333"/>
<path d="M17.4248 15.0981H46.4658V29.8038C46.4658 33.5748 44.474 37.0514 41.2286 38.9439L31.9523 44.3411L22.6759 38.9439C19.4305 37.0654 17.4387 33.5748 17.4387 29.8038V15.0981H17.4248Z" fill="#FFDD2D"/>
<path fill-rule="evenodd" clip-rule="evenodd" d="M25.3921 22.8364V27.4065C26.0189 26.7056 27.1471 26.229 28.4285 26.229H29.8353V31.542C29.8353 32.9579 29.4592 34.1916 28.8881 34.8785H34.9888C34.4178 34.1916 34.0417 32.9579 34.0417 31.542V26.229H35.4485C36.7438 26.229 37.872 26.7056 38.4849 27.4065V22.8364H25.3921Z" fill="#333333"/>
<path d="M177.812 22.1494V23.369C182.408 23.4672 185.152 25.4158 185.152 28.8503C185.152 32.2849 182.408 34.0793 177.812 34.1915V35.4111H174.176V34.1915C169.608 34.0933 166.864 32.2989 166.864 28.8503C166.864 25.4158 169.608 23.4672 174.176 23.369V22.1494H177.812ZM174.176 31.612V25.9765C171.669 26.0746 170.555 27.2382 170.555 28.8644C170.555 30.4765 171.669 31.5139 174.176 31.612ZM177.812 25.9765V31.612C180.347 31.5139 181.433 30.4765 181.433 28.8503C181.433 27.2382 180.361 26.0746 177.812 25.9765Z" fill="white"/>
<path d="M158.367 22.1494V23.369C162.964 23.4672 165.708 25.4158 165.708 28.8503C165.708 32.2849 162.964 34.0793 158.367 34.1915V35.4111H154.732V34.1915C150.163 34.0933 147.419 32.2989 147.419 28.8503C147.419 25.4158 150.163 23.4672 154.732 23.369V22.1494H158.367ZM154.718 31.612V25.9765C152.211 26.0746 151.097 27.2382 151.097 28.8644C151.11 30.4765 152.211 31.5139 154.718 31.612ZM158.367 25.9765V31.612C160.902 31.5139 161.989 30.4765 161.989 28.8503C161.989 27.2382 160.902 26.0746 158.367 25.9765Z" fill="white"/>
<path d="M138.422 22.5139C143.297 22.5139 146.236 25.2896 146.236 28.8784C146.236 32.4672 143.297 35.2429 138.422 35.2429C133.519 35.2429 130.58 32.4672 130.58 28.8784C130.594 25.2896 133.533 22.5139 138.422 22.5139ZM138.422 32.313C140.831 32.313 142.419 30.841 142.419 28.8784C142.419 26.9018 140.831 25.4719 138.422 25.4719C135.984 25.4719 134.424 26.9158 134.424 28.8784C134.424 30.855 135.984 32.313 138.422 32.313Z" fill="white"/>
<path d="M121.735 30.3223H120.733V34.8784H117.097V22.8503H120.733V27.3784H121.735L126.137 22.8503H130.705L124.883 28.598L130.942 34.8644H126.095L121.735 30.3223Z" fill="white"/>
<path d="M109.812 34.8784H102.43V22.8503H106.079V26.0746H109.826C110.732 26.0746 111.679 26.1027 112.487 26.3971C114.172 27.0279 115.23 28.4158 115.23 30.4204C115.23 32.5232 114.005 34.0653 112.11 34.598C111.386 34.7943 110.634 34.8784 109.812 34.8784ZM109.172 28.9064H106.052V31.9625H109.172C109.798 31.9625 110.202 31.9625 110.606 31.7802C111.177 31.5279 111.539 30.9952 111.539 30.3644C111.539 29.7616 111.191 29.2569 110.578 29.0466C110.161 28.9064 109.673 28.9064 109.172 28.9064Z" fill="white"/>
<path d="M96.0234 30.3925H90.1734V34.8645H86.5381V22.8364H90.1734V27.2383H96.0234V22.8364H99.6588V34.8645H96.0234V30.3925Z" fill="white"/>
<path d="M74.2667 29.8458L80.5485 22.8364H83.7659V34.8645H80.1306V27.8551L73.8488 34.8645H70.6313V22.8364H74.2667V29.8458Z" fill="white"/>
<path d="M63.9458 34.8784H60.1712V26.0606H54.9897V22.8503H69.1133V26.0606H63.9458V34.8784Z" fill="white"/>
</g>
<defs>
<clipPath id="clip0_2203_1520">
<rect width="205" height="57" fill="white"/>
</clipPath>
</defs>
</svg>
