<svg width="70" height="70" viewBox="0 0 70 70" fill="none" xmlns="http://www.w3.org/2000/svg">
<path d="M69.9482 1.32488C69.9385 1.27605 69.9222 1.23373 69.9059 1.18164C69.8897 1.12305 69.8734 1.06446 69.8571 1.01563C69.8311 0.957035 69.7985 0.908203 69.7725 0.85612C69.7464 0.813802 69.7302 0.771486 69.7074 0.732419C69.5837 0.550127 69.4242 0.390619 69.2484 0.273435C69.2061 0.247394 69.1638 0.231118 69.1247 0.208331C69.0759 0.175779 69.0173 0.149738 68.9587 0.123698C68.9002 0.0976563 68.8513 0.0911457 68.7927 0.0748698C68.7439 0.058594 68.7016 0.0423171 68.6495 0.0325521C68.5421 0.00651042 68.4314 0 68.324 0H54.0736C53.1557 0 52.4071 0.7487 52.4071 1.66667C52.4071 2.58467 53.1557 3.33334 54.0736 3.33334H64.2977L48.8241 18.8083C48.7655 18.8669 48.7167 18.932 48.6744 18.9906C45.7579 18.5414 42.617 18.3168 39.4826 18.3168C27.8595 18.3168 16.1022 21.4256 16.1022 27.376V51.5527C16.1022 51.5527 16.0436 51.595 16.011 51.6275L0.488239 67.1517C-0.162746 67.8027 -0.162746 68.8607 0.488239 69.5085C0.813735 69.834 1.23687 70 1.6633 70C2.08973 70 2.51281 69.834 2.83837 69.5085L16.0955 56.2501V58.9585C16.0955 59.4826 16.3364 59.9513 16.7205 60.2573C19.3863 64.9318 30.176 67.0737 39.4852 67.0737C48.7943 67.0737 59.5742 64.9318 62.2498 60.2573C62.6339 59.9481 62.8748 59.4826 62.8748 58.9585V27.3768C62.8748 23.7765 58.5653 21.2179 52.5924 19.7596L66.667 5.68376V16.1004C66.667 17.0184 67.4156 17.7671 68.3335 17.7671C69.2514 17.7671 70 17.0184 70 16.1004L69.9967 1.65042C69.9967 1.543 69.987 1.43232 69.9642 1.3249L69.9482 1.32488ZM59.5225 48.1091C59.5225 50.4431 51.7139 53.835 39.4751 53.835C27.2336 53.835 19.4277 50.4431 19.4277 48.1091V43.0017C23.7437 45.7523 31.6433 47.1683 39.4751 47.1683C47.3069 47.1683 55.2162 45.7523 59.5225 43.0017V48.1091ZM59.5225 38.0991C59.5225 40.4331 51.7139 43.825 39.4751 43.825C27.2336 43.825 19.4277 40.4331 19.4277 38.0991V32.256C23.7437 35.0066 31.6433 36.4226 39.4751 36.4226C47.3069 36.4226 55.2162 35.0066 59.5225 32.256V38.0991ZM59.4476 58.3657C58.6046 60.6151 51.1997 63.7336 39.4752 63.7336C27.7507 63.7336 20.336 60.6183 19.5028 58.3657C19.4767 58.3072 19.454 58.2486 19.4279 58.19V52.9979C23.744 55.7485 31.6435 57.1645 39.4753 57.1645C47.3072 57.1645 55.2165 55.7485 59.5228 52.9979V58.19C59.4967 58.2486 59.4737 58.3072 59.4476 58.3657ZM59.5225 27.3666C59.5225 29.7006 51.7139 33.0925 39.4751 33.0925C27.2336 33.0925 19.4277 29.7006 19.4277 27.3666C19.4277 25.0326 27.2362 21.6406 39.4751 21.6406C51.7165 21.6406 59.5225 25.0326 59.5225 27.3666Z" fill="url(#paint0_linear_32_409)"/>
<defs>
<linearGradient id="paint0_linear_32_409" x1="35" y1="0" x2="35" y2="70" gradientUnits="userSpaceOnUse">
<stop stop-color="#38AAE8"/>
<stop offset="1" stop-color="#4EBD8D"/>
</linearGradient>
</defs>
</svg>
