<svg width="80" height="76" viewBox="0 0 80 76" fill="none" xmlns="http://www.w3.org/2000/svg">
<path d="M33.2581 37.8478H27.3042C26.6132 37.8478 26.0495 38.4135 26.0495 39.1145V65.2423C26.0495 65.9398 26.6098 66.509 27.3042 66.509H33.2581C33.9491 66.509 34.5129 65.9433 34.5129 65.2423V39.1181C34.5129 38.4171 33.9526 37.8478 33.2581 37.8478ZM32.0034 63.9756H28.5589V40.3842H32.0034V63.9756ZM3.64968 33.7905H17.3386C17.5586 33.7905 17.7751 33.7315 17.9676 33.6205L29.8102 26.7181L39.7414 27.7383C40.0439 27.7695 40.3464 27.6897 40.5939 27.5127L49.9169 20.8705L56.3075 21.4084C56.6959 21.4431 57.0844 21.287 57.3456 20.992L65.5169 11.7988L65.5685 13.0967C65.596 13.7942 66.1804 14.339 66.8713 14.3113C67.5623 14.2836 68.102 13.6936 68.0745 12.996L67.8992 8.5783C67.8717 7.88077 67.2907 7.33597 66.5963 7.36368L62.2202 7.54067C61.5292 7.56843 60.9896 8.15838 61.017 8.85594C61.0445 9.55348 61.6255 10.0983 62.3199 10.0706L63.7259 10.015L55.8916 18.8296L49.6695 18.3056C49.3739 18.2813 49.0817 18.3611 48.8411 18.5347L39.5286 25.1699L29.659 24.1566C29.3978 24.1289 29.1331 24.1879 28.9062 24.3197L17.0055 31.2569H7.3428V16.3798H24.6134C25.3044 16.3798 25.8682 15.8141 25.8682 15.1131V2.86651C25.8682 2.16551 25.3078 1.59983 24.6134 1.59983H7.3428V1.26668C7.3428 0.565679 6.78247 0 6.08805 0H1.25475C0.563783 0 0 0.565661 0 1.26668V32.5241C0 33.2251 0.560333 33.7908 1.25475 33.7908L3.64968 33.7905ZM23.3544 4.13311V13.8469H7.34229V4.13311H23.3544ZM2.50828 2.53329H4.83209V31.2534L3.6495 31.2569H2.50819L2.50828 2.53329ZM20.8376 42.4455H14.8836C14.1927 42.4455 13.6289 43.0111 13.6289 43.7121V65.2416C13.6289 65.9391 14.1892 66.5083 14.8836 66.5083H20.8376C21.5285 66.5083 22.0923 65.9426 22.0923 65.2416V43.7121C22.0923 43.0146 21.5285 42.4455 20.8376 42.4455ZM19.5828 63.9749H16.1383V44.9783H19.5828V63.9749ZM8.41698 42.6676H2.46304C1.77208 42.6676 1.2083 43.2332 1.2083 43.9342V65.2416C1.2083 65.9391 1.76863 66.5083 2.46304 66.5083H8.41698C9.10795 66.5083 9.67173 65.9426 9.67173 65.2416V43.9342C9.67173 43.2332 9.10796 42.6676 8.41698 42.6676ZM7.16223 63.9749H3.7177V45.2004H7.16223V63.9749ZM79.5624 71.3493L71.7761 58.2312V20.509C71.7761 19.808 71.2158 19.2423 70.5214 19.2423H64.5674C63.8765 19.2423 63.3127 19.8079 63.3127 20.509V43.9751L61.6867 41.2336C61.2123 40.4354 60.3769 39.9565 59.4522 39.9565C59.4212 39.9565 59.3903 39.96 59.3559 39.96V27.6646C59.3559 26.9636 58.7956 26.3979 58.1012 26.3979H52.1472C51.4563 26.3979 50.8925 26.9635 50.8925 27.6646V51.8912L46.9358 58.5576V33.2489C46.9358 32.5479 46.3754 31.9823 45.681 31.9823H39.7271C39.0361 31.9823 38.4723 32.5479 38.4723 33.2489V65.2455C38.4723 65.943 39.0327 66.5122 39.7271 66.5122H42.2159L39.3421 71.3532C38.7714 72.3179 38.7577 73.4736 39.3008 74.4453C39.8474 75.4205 40.8374 76 41.9478 76H76.9528C78.0631 76 79.0531 75.417 79.5997 74.4453C80.1463 73.4701 80.133 72.3141 79.5624 71.3493ZM65.8224 21.7758H69.267V54.0078L65.8224 48.2055V21.7758ZM53.4026 28.9316H56.8471V41.8587L53.4026 47.661V28.9316ZM40.9792 63.9745V34.5152H44.4237V62.784L43.7156 63.9743L40.9792 63.9745ZM77.4177 73.1951C77.3593 73.2958 77.2252 73.4658 76.9537 73.4658H41.9487C41.6771 73.4658 41.5396 73.2958 41.4846 73.1951C41.4296 73.0945 41.354 72.8898 41.4949 72.6538L59.3701 42.5388C59.3804 42.5215 59.3976 42.4937 59.4526 42.4937C59.5076 42.4937 59.5248 42.5215 59.5351 42.5388L77.4103 72.6538C77.5478 72.8898 77.4762 73.0945 77.4177 73.1951ZM59.4493 47.2299C57.3695 47.2299 55.802 48.7499 55.802 50.7662C55.802 50.794 55.802 50.8252 55.8054 50.853L56.7129 64.1612C56.7335 65.4452 57.5929 66.4481 58.8098 66.7153C57.3729 67.0172 56.29 68.3047 56.29 69.842C56.29 71.6015 57.7098 73.0348 59.4527 73.0348C61.1956 73.0348 62.6154 71.6015 62.6154 69.842C62.6154 68.3046 61.5325 67.0137 60.0956 66.7153C61.309 66.4516 62.1685 65.4452 62.1891 64.1612L63.0966 50.8494C63.1 50.8216 63.1 50.7904 63.1 50.7626C63.1 48.7499 61.5325 47.2299 59.4493 47.2299ZM59.4493 70.5051C59.0883 70.5051 58.7961 70.2101 58.7961 69.8457C58.7961 69.4813 59.0883 69.1864 59.4493 69.1864C59.8102 69.1864 60.1024 69.4813 60.1024 69.8457C60.1059 70.2101 59.8102 70.5051 59.4493 70.5051ZM59.683 64.0294C59.6796 64.0572 59.6796 64.0884 59.6796 64.1162C59.6796 64.1717 59.6693 64.196 59.6693 64.196C59.6555 64.2134 59.5765 64.2585 59.4493 64.2585C59.3221 64.2585 59.243 64.2134 59.2327 64.1995C59.2327 64.1995 59.2224 64.1787 59.2224 64.1197C59.2224 64.0919 59.2224 64.0607 59.219 64.0329L58.3115 50.7345C58.3355 49.8392 59.1846 49.7663 59.4493 49.7663C59.714 49.7663 60.5665 49.8357 60.5872 50.7345L59.683 64.0294Z" fill="url(#paint0_linear_32_378)"/>
<defs>
<linearGradient id="paint0_linear_32_378" x1="40" y1="0" x2="40" y2="76" gradientUnits="userSpaceOnUse">
<stop stop-color="#38AAE8"/>
<stop offset="1" stop-color="#4EBD8D"/>
</linearGradient>
</defs>
</svg>
