<svg width="80" height="80" viewBox="0 0 80 80" fill="none" xmlns="http://www.w3.org/2000/svg">
<path d="M56.9781 21.427C60.9573 23.9655 64.3691 27.4207 66.8547 31.4271C69.4019 35.5334 70.9844 40.2443 71.4282 45.0552C71.4706 45.502 71.1387 45.8988 70.691 45.9411C70.664 45.945 70.6408 45.945 70.6138 45.945C70.197 45.945 69.8419 45.6291 69.8033 45.2054C68.9465 35.976 63.9523 27.8095 56.0983 22.802C55.72 22.5593 55.6081 22.0547 55.8513 21.6772C56.0944 21.2959 56.5999 21.1844 56.9781 21.427ZM55.0407 73.8298C50.4903 76.4723 45.2915 77.8706 39.9998 77.8706C34.7199 77.8706 29.5246 76.48 24.9866 73.8453C24.5968 73.618 24.0989 73.7528 23.8712 74.1419C23.6435 74.5309 23.7786 75.0278 24.1684 75.2551C28.9581 78.0324 34.4351 79.5 40.0036 79.5C45.5806 79.5 51.0647 78.0247 55.8666 75.2397C56.2564 75.0124 56.3876 74.5155 56.1599 74.1265C55.9283 73.7336 55.4305 73.6025 55.0407 73.8298ZM9.29753 46.0955C9.32069 46.0994 9.34384 46.0994 9.37086 46.0994C9.78769 46.0994 10.1466 45.7796 10.1814 45.3559C10.9841 36.1997 16.1134 27.7716 23.8983 22.8026C24.2765 22.56 24.3884 22.0554 24.1453 21.6779C23.9021 21.3004 23.3965 21.1887 23.0183 21.4314C19.0198 23.9813 15.5888 27.4636 13.1034 31.4966C10.5523 35.6297 8.97753 40.3754 8.55683 45.2173C8.51823 45.6603 8.84983 46.057 9.29753 46.0955ZM23.3731 68.2366C23.7899 68.8336 23.7166 69.6426 23.1994 70.1587L21.3971 71.9576C20.8799 72.4737 20.0693 72.5469 19.4712 72.1309L18.3171 71.3335C17.607 71.7265 16.8505 72.0385 16.0748 72.2619L15.8239 73.6409C15.6927 74.3573 15.0675 74.8773 14.338 74.8773H11.7908C11.0613 74.8773 10.4361 74.3573 10.3048 73.6409L10.054 72.2619C9.27435 72.0385 8.52172 71.7265 7.80777 71.3335L6.65374 72.1309C6.05165 72.5469 5.245 72.4737 4.72786 71.9576L2.92548 70.1587C2.4083 69.6425 2.33497 68.8336 2.7518 68.2366L3.55072 67.0848C3.15705 66.3761 2.84443 65.621 2.62057 64.8468L1.2389 64.5965C0.521031 64.4655 0 63.8415 0 63.1135V60.5712C0 59.8431 0.521031 59.2191 1.2389 59.0882L2.62057 58.8378C2.84442 58.0597 3.15705 57.3085 3.55072 56.596L2.7518 55.4442C2.33497 54.8471 2.4083 54.0382 2.92548 53.5221L4.72786 51.7232C5.24504 51.207 6.05558 51.1338 6.65374 51.5499L7.80777 52.3472C8.51792 51.9543 9.27441 51.6423 10.0501 51.4189L10.3087 50.0438C10.4399 49.3273 11.0652 48.8073 11.7946 48.8073H14.3419C15.0713 48.8073 15.6966 49.3273 15.8278 50.0438L16.0787 51.4227C16.8583 51.6462 17.6109 51.9582 18.321 52.3511L19.475 51.5537C20.0733 51.1377 20.8838 51.2109 21.4009 51.7271L23.2033 53.5259C23.7205 54.0421 23.7938 54.851 23.377 55.448L22.5781 56.5998C22.9717 57.3086 23.2843 58.0636 23.5082 58.8378L24.8899 59.0882C25.6077 59.2191 26.1288 59.8393 26.1288 60.5712V63.1135C26.1288 63.8415 25.6077 64.4655 24.8899 64.5965L23.5082 64.8468C23.2844 65.6249 22.9717 66.3761 22.5781 67.0887L23.3731 68.2366ZM21.1152 66.3529C21.4742 65.7135 21.7559 65.0356 21.9566 64.3306C22.1149 63.7721 22.5664 63.3599 23.1415 63.256L24.4962 63.0094V60.6713L23.1415 60.4247C22.5703 60.3207 22.1148 59.9086 21.9566 59.3501C21.7598 58.649 21.478 57.9673 21.1152 57.3278C20.8296 56.8193 20.8567 56.2107 21.1886 55.733L21.9721 54.6006L20.3163 52.9481L19.1816 53.73C18.7031 54.0613 18.0894 54.0883 17.5838 53.8032C16.9431 53.445 16.2639 53.1599 15.5575 52.9635C14.9979 52.8055 14.5849 52.3549 14.4808 51.7809L14.2338 50.4289H11.891L11.644 51.7809C11.5398 52.3549 11.1268 52.8056 10.5672 52.9635C9.86481 53.1599 9.18172 53.4411 8.54098 53.8032C8.03538 54.0883 7.42173 54.0613 6.94312 53.73L5.80846 52.9481L4.15271 54.6006L4.93619 55.7292C5.26812 56.2068 5.29513 56.8193 5.00953 57.3239C4.65059 57.9634 4.36884 58.6413 4.16815 59.3462C4.00991 59.9048 3.55835 60.3169 2.9833 60.4209L1.6286 60.6674V63.0056L2.9833 63.2521C3.55836 63.3561 4.00997 63.7683 4.16815 64.3268C4.36499 65.0278 4.64674 65.7096 5.00953 66.3491C5.29513 66.8575 5.26811 67.4661 4.93619 67.9477L4.15271 69.0801L5.80846 70.7326L6.93927 69.9507C7.41786 69.6194 8.03155 69.5924 8.53713 69.8775C9.17781 70.2357 9.85705 70.5208 10.5634 70.7172C11.123 70.8752 11.536 71.3258 11.6402 71.8998L11.8872 73.2518H14.2299L14.4769 71.8998C14.5811 71.3258 14.9941 70.8751 15.5537 70.7172C16.2561 70.5208 16.9392 70.2396 17.5799 69.8775C18.0855 69.5924 18.6992 69.6194 19.1778 69.9507L20.3125 70.7326L21.9682 69.0801L21.1847 67.9515C20.8567 67.47 20.8296 66.8575 21.1152 66.3529ZM19.0157 61.8423C19.0157 65.1164 16.3449 67.782 13.0643 67.782C9.78374 67.782 7.11298 65.1164 7.11298 61.8423C7.11298 58.5681 9.78374 55.9026 13.0643 55.9026C16.3488 55.9026 19.0157 58.5643 19.0157 61.8423ZM17.3831 61.8423C17.3831 59.4656 15.4457 57.5319 13.0643 57.5319C10.683 57.5319 8.74551 59.4656 8.74551 61.8423C8.74551 64.219 10.683 66.1526 13.0643 66.1526C15.4457 66.1526 17.3831 64.219 17.3831 61.8423ZM80 61.8423C80 69.0301 74.1412 74.8776 66.9391 74.8776C59.7372 74.8776 53.8783 69.0303 53.8783 61.8423C53.8783 59.5195 54.4958 57.2661 55.6614 55.2785L53.3302 52.9519C53.1141 52.7362 53.0369 52.4165 53.1295 52.1237C53.2222 51.831 53.473 51.6191 53.7779 51.5691L56.248 51.1723L56.6455 48.707C56.6957 48.4066 56.908 48.1562 57.2013 48.0599C57.4946 47.9675 57.8111 48.0445 58.0311 48.2602L60.3623 50.5868C62.3538 49.4235 64.6116 48.8072 66.9388 48.8072C74.1407 48.8072 80 54.6542 80 61.8423ZM61.3587 57.4202C60.39 58.6374 59.8072 60.1705 59.8072 61.8384C59.8072 65.7636 63.0067 68.9569 66.9396 68.9569C70.8725 68.9569 74.0721 65.7636 74.0721 61.8384C74.0721 57.9132 70.8725 54.7199 66.9396 54.7199C65.2646 54.7199 63.7285 55.3016 62.5127 56.2684L64.4116 58.1636C65.1334 57.6667 66.0018 57.3739 66.9396 57.3739C69.4059 57.3739 71.4128 59.3769 71.4128 61.8383C71.4128 64.2998 69.4059 66.3028 66.9396 66.3028C64.4734 66.3028 62.4665 64.2998 62.4665 61.8383C62.4665 60.9023 62.7598 60.0318 63.2577 59.3153L61.3587 57.4202ZM64.4502 60.5056C64.234 60.9062 64.099 61.353 64.099 61.8384C64.099 63.4023 65.3726 64.6735 66.9396 64.6735C68.5065 64.6735 69.7802 63.4023 69.7802 61.8384C69.7802 60.2746 68.5065 59.0034 66.9396 59.0034C66.4533 59.0034 66.0017 59.1382 65.6041 59.3539L67.5184 61.2645C67.8388 61.5842 67.8388 62.0965 67.5184 62.4163C67.3602 62.5742 67.1518 62.6551 66.9395 62.6551C66.7311 62.6551 66.5227 62.5742 66.3606 62.4163L64.4502 60.5056ZM58.0087 50.537L57.8388 51.6002L59.3402 53.0986L59.51 52.0354L58.0087 50.537ZM55.6157 52.9253L57.1171 54.4237L58.1823 54.2542L56.6809 52.7558L55.6157 52.9253ZM78.3673 61.8427C78.3673 55.5524 73.2418 50.4373 66.9396 50.4373C64.8941 50.4373 62.9142 50.9805 61.1657 52.0051L60.7605 54.5204L61.351 55.1098C62.8678 53.8502 64.8168 53.0913 66.9435 53.0913C71.7756 53.0913 75.7085 57.0165 75.7085 61.8392C75.7085 66.6618 71.7756 70.587 66.9435 70.587C62.1114 70.587 58.1785 66.6618 58.1785 61.8392C58.1785 59.7206 58.9388 57.7753 60.2009 56.2576L59.6104 55.6683L57.0901 56.0727C56.0635 57.8176 55.5193 59.7937 55.5193 61.8353C55.5193 68.1256 60.6448 73.2407 66.947 73.2407C73.2419 73.2445 78.3673 68.1295 78.3673 61.8427ZM30.2163 17.2292C30.2278 11.8518 34.6161 7.47981 40.0001 7.47981C45.3841 7.47981 49.7724 11.8518 49.7839 17.2253C49.7801 19.8909 48.7187 22.3755 46.8044 24.2283C46.1406 24.8677 45.8202 25.6266 45.8202 26.5472V27.4524C46.7427 27.9185 47.3718 28.8815 47.3718 30.0294C47.3718 31.5009 46.3529 32.668 44.9865 32.8722C44.7472 35.4221 42.6168 37.4291 40.0039 37.4291C38.6684 37.4291 37.3601 36.8782 36.4145 35.923C35.5847 35.0833 35.1139 34.0124 35.0173 32.8722C33.6549 32.668 32.636 31.497 32.636 30.0294C32.636 28.8815 33.2651 27.9185 34.1875 27.4524V26.5472C34.1875 25.6266 33.8671 24.8678 33.2033 24.2283C31.2813 22.3755 30.224 19.891 30.2163 17.2292ZM43.3502 32.9103H36.6502C36.7505 33.6075 37.0631 34.2546 37.5764 34.7746C38.221 35.4256 39.1048 35.7993 40.0041 35.7993C41.7023 35.7993 43.1032 34.5397 43.3502 32.9103ZM45.7393 30.0289C45.7393 29.324 45.226 28.7732 44.5699 28.7732H35.4344C34.7783 28.7732 34.2649 29.3241 34.2649 30.0289C34.2649 30.7338 34.7783 31.2847 35.4344 31.2847H44.5699C45.2221 31.2808 45.7393 30.73 45.7393 30.0289ZM37.6922 17.2253C37.6922 16.6321 37.2098 16.1507 36.6155 16.1507C36.0211 16.1507 35.5387 16.6322 35.5387 17.2253C35.5387 17.8185 36.0212 18.3 36.6155 18.3H37.6922V17.2253ZM40.6756 19.9333H39.3248V27.1442H40.6756V19.9333ZM31.8489 17.2292C31.8527 19.4441 32.7366 21.5165 34.3305 23.0573C35.3147 24.0087 35.8126 25.1797 35.8126 26.5472V27.1443H37.6883V19.9333H36.6115C35.1179 19.9333 33.9021 18.7199 33.9021 17.2292C33.9021 15.7385 35.1179 14.5251 36.6115 14.5251C38.1051 14.5251 39.3209 15.7385 39.3209 17.2292V18.3039H40.6718V17.2292C40.6718 15.7385 41.8875 14.5251 43.3812 14.5251C44.8748 14.5251 46.0906 15.7385 46.0906 17.2292C46.0906 18.7199 44.8748 19.9333 43.3812 19.9333H42.3044V27.1443H44.1801V26.5472C44.1801 25.1836 44.678 24.0088 45.6621 23.0573C47.26 21.5126 48.1399 19.4441 48.1438 17.2253C48.1361 12.7493 44.4811 9.10916 39.9925 9.10916C35.5155 9.10916 31.8566 12.7493 31.8489 17.2292ZM43.3892 18.3038C43.9835 18.3038 44.4659 17.8223 44.4659 17.2292C44.4659 16.636 43.9835 16.1545 43.3892 16.1545C42.7948 16.1545 42.3124 16.636 42.3124 17.2292V18.3038H43.3892ZM40.0005 5.48442C40.4521 5.48442 40.8149 5.11849 40.8149 4.67165V1.31277C40.8149 0.862089 40.4482 0.5 40.0005 0.5C39.5489 0.5 39.1861 0.865935 39.1861 1.31277V4.67165C39.1861 5.12233 39.5489 5.48442 40.0005 5.48442ZM30.5293 8.92426C30.6875 9.0822 30.8959 9.16309 31.1082 9.16309C31.3166 9.16309 31.525 9.0822 31.6871 8.92426C32.0075 8.60455 32.0075 8.09223 31.6871 7.77249L29.3097 5.39971C28.9894 5.08 28.4761 5.08 28.1557 5.39971C27.8353 5.71943 27.8353 6.23174 28.1557 6.55149L30.5293 8.92426ZM24.0568 18.0419H27.4223C27.8738 18.0419 28.2366 17.676 28.2366 17.2291C28.2366 16.7785 27.87 16.4164 27.4223 16.4164H24.0568C23.6053 16.4164 23.2425 16.7823 23.2425 17.2291C23.2386 17.676 23.6053 18.0419 24.0568 18.0419ZM30.5293 25.5302L28.1518 27.903C27.8315 28.2227 27.8315 28.735 28.1518 29.0548C28.3101 29.2127 28.5185 29.2936 28.7308 29.2936C28.9392 29.2936 29.1476 29.2127 29.3097 29.0548L31.6871 26.682C32.0075 26.3623 32.0075 25.85 31.6871 25.5302C31.3629 25.2105 30.8458 25.2105 30.5293 25.5302ZM49.4719 25.5302C49.1516 25.2105 48.6344 25.2105 48.3179 25.5302C47.9976 25.8499 47.9976 26.3623 48.3179 26.682L50.6953 29.0548C50.8535 29.2127 51.062 29.2936 51.2742 29.2936C51.4827 29.2936 51.6911 29.2127 51.8532 29.0548C52.1735 28.7351 52.1735 28.2227 51.8532 27.903L49.4719 25.5302ZM51.7645 17.2253C51.7645 17.676 52.1311 18.0381 52.5788 18.0381H55.9443C56.3958 18.0381 56.7586 17.6722 56.7586 17.2253C56.7586 16.7746 56.392 16.4125 55.9443 16.4125H52.5788C52.1311 16.4125 51.7645 16.7785 51.7645 17.2253ZM48.8969 9.1631C49.1053 9.1631 49.3137 9.08221 49.4758 8.92427L51.8532 6.5515C52.1736 6.23178 52.1736 5.71947 51.8532 5.39972C51.5329 5.08001 51.0157 5.08001 50.6992 5.39972L48.3218 7.7725C48.0014 8.09221 48.0014 8.60453 48.3218 8.92427C48.48 9.08221 48.6885 9.1631 48.8969 9.1631Z" fill="url(#paint0_linear_32_340)"/>
<defs>
<linearGradient id="paint0_linear_32_340" x1="40.4785" y1="79.4444" x2="40.4785" y2="0.555736" gradientUnits="userSpaceOnUse">
<stop stop-color="#4EBD8D"/>
<stop offset="1" stop-color="#38AAE8"/>
</linearGradient>
</defs>
</svg>
