<svg width="31" height="30" viewBox="0 0 31 30" fill="none" xmlns="http://www.w3.org/2000/svg">
<path d="M10.4977 9.6677L14.1782 2.2557C14.2853 2.04119 14.4501 1.86077 14.654 1.73467C14.858 1.60857 15.093 1.54178 15.3328 1.54178C15.5725 1.54178 15.8076 1.60857 16.0115 1.73467C16.2154 1.86077 16.3802 2.04119 16.4874 2.2557L20.1679 9.6677L28.3959 10.8634C28.6332 10.8963 28.8565 10.9952 29.0403 11.149C29.224 11.3027 29.3609 11.505 29.4352 11.7328C29.5095 11.9606 29.5183 12.2047 29.4605 12.4372C29.4027 12.6697 29.2807 12.8813 29.1084 13.0479L23.1556 18.8137L24.5609 26.9595C24.7409 28.005 23.6359 28.8012 22.6909 28.3082L15.3328 24.4605L7.97319 28.3082C7.02969 28.8026 5.92469 28.005 6.10461 26.9581L7.50994 18.8123L1.55711 13.0464C1.38567 12.8798 1.26442 12.6684 1.20714 12.4363C1.14986 12.2042 1.15884 11.9607 1.23307 11.7334C1.3073 11.5061 1.4438 11.3043 1.62705 11.1507C1.8103 10.9972 2.03295 10.8981 2.26969 10.8648L10.4977 9.6677Z" stroke="#111111" stroke-width="2.125" stroke-linecap="round" stroke-linejoin="round"/>
</svg>
