<svg width="28" height="32" viewBox="0 0 28 32" fill="none" xmlns="http://www.w3.org/2000/svg">
<path d="M21.9514 8.09772C21.9514 10.1935 21.1098 12.2035 19.6117 13.6855C18.1136 15.1675 16.0817 16.0001 13.963 16.0001C11.8443 16.0001 9.81245 15.1675 8.31433 13.6855C6.81621 12.2035 5.97457 10.1935 5.97457 8.09772C5.97457 6.00189 6.81621 3.99189 8.31433 2.50992C9.81245 1.02794 11.8443 0.195374 13.963 0.195374C16.0817 0.195374 18.1136 1.02794 19.6117 2.50992C21.1098 3.99189 21.9514 6.00189 21.9514 8.09772ZM19.669 8.09772C19.669 6.60069 19.0679 5.16499 17.9978 4.10643C16.9277 3.04788 15.4763 2.45319 13.963 2.45319C12.4497 2.45319 10.9983 3.04788 9.92824 4.10643C8.85815 5.16499 8.25698 6.60069 8.25698 8.09772C8.25698 9.59474 8.85815 11.0304 9.92824 12.089C10.9983 13.1476 12.4497 13.7422 13.963 13.7422C15.4763 13.7422 16.9277 13.1476 17.9978 12.089C19.0679 11.0304 19.669 9.59474 19.669 8.09772ZM4.26277 18.2579C3.20344 18.2579 2.18749 18.6742 1.43843 19.4151C0.689373 20.1561 0.268555 21.1611 0.268555 22.209V22.7735C0.268555 25.475 2.00661 27.7599 4.47389 29.3133C6.95487 30.8757 10.3134 31.8047 13.963 31.8047C17.6126 31.8047 20.97 30.8757 23.4521 29.3133C25.9194 27.7599 27.6574 25.475 27.6574 22.7735V22.209C27.6574 21.1611 27.2366 20.1561 26.4876 19.4151C25.7385 18.6742 24.7226 18.2579 23.6632 18.2579H4.26277ZM2.55096 22.209C2.55096 21.7599 2.73131 21.3292 3.05234 21.0117C3.37336 20.6941 3.80877 20.5157 4.26277 20.5157H23.6632C24.1172 20.5157 24.5526 20.6941 24.8737 21.0117C25.1947 21.3292 25.375 21.7599 25.375 22.209V22.7735C25.375 24.4364 24.3023 26.1026 22.2265 27.4088C20.1643 28.707 17.2462 29.5469 13.963 29.5469C10.6798 29.5469 7.7617 28.707 5.69954 27.4088C3.62255 26.1038 2.55096 24.4352 2.55096 22.7735V22.209Z" fill="#111111"/>
</svg>
