<svg width="348" height="58" viewBox="0 0 348 58" fill="none" xmlns="http://www.w3.org/2000/svg">
<g clip-path="url(#clip0_188_936)">
<path opacity="0.8" d="M186.385 12.083L191.739 19.0817L197.116 12.083H199.425V26.8673H196.879V16.2708L191.762 22.9727L186.601 16.2493V26.8673H184.076V12.083H186.385ZM204.375 26.8673V12.083H206.923V22.7045L215.536 12.083H217.738V26.8673H215.213V16.2278L206.577 26.8673H204.375ZM227.573 21.7461H225.222V26.8673H222.694V12.083H227.573C230.725 12.083 232.886 14.1859 232.886 16.9145C232.886 19.6432 230.725 21.7461 227.573 21.7461ZM227.539 14.3754H225.208V19.4537H227.539C229.353 19.4537 230.387 18.3521 230.387 16.9145C230.387 15.4768 229.368 14.3754 227.539 14.3754ZM184.058 47.6741V32.8898H186.604V43.5077L195.217 32.8898H197.419V47.6741H194.913V37.0311L186.26 47.6741H184.058ZM202.378 32.8898H204.924V39.0123H212.499V32.8898H215.028V47.6741H212.499V41.3225H204.924V47.6741H202.396L202.378 32.8898ZM219.974 32.8898H225.264C228.004 32.8898 229.84 34.7422 229.84 36.9703C229.864 37.5232 229.747 38.0734 229.498 38.5724C229.251 39.0714 228.878 39.5037 228.416 39.8313C229.159 40.0926 229.797 40.5736 230.239 41.2056C230.681 41.8376 230.905 42.5883 230.877 43.3503C230.877 45.7858 228.846 47.6812 225.932 47.6812H219.974V32.8898ZM225.135 39.1161C226.514 39.1161 227.36 38.2613 227.36 37.1169C227.36 36.044 226.514 35.1178 225.135 35.1178H222.499V39.1161H225.135ZM225.876 45.446C227.515 45.446 228.423 44.5699 228.423 43.3217C228.423 42.0736 227.515 41.1974 225.876 41.1974H222.499V45.446H225.876ZM234.89 32.8898H244.109V35.2215H237.417V39.0123H242.811V41.344H237.417V45.3424H244.109V47.6741H234.89V32.8898ZM246.95 40.2818C246.95 35.9509 250.362 32.6393 254.939 32.6393C258.648 32.6393 261.566 34.9495 262.322 37.8463H259.6C258.956 36.1583 257.098 34.9852 254.939 34.9852C251.744 34.9852 249.498 37.2956 249.498 40.2746C249.498 43.2536 251.744 45.5639 254.939 45.5639C257.098 45.5639 258.956 44.398 259.6 42.7029H262.322C261.581 45.5962 258.615 47.9099 254.939 47.9099C250.362 47.9243 246.95 44.6125 246.95 40.2818ZM269.181 35.2215H264.731V32.8898H276.173V35.2215H271.724V47.6741H269.199L269.181 35.2215ZM279.763 47.6741V32.8898H282.309V43.5077L290.94 32.8898H293.142V47.6741H290.614V37.0311L281.965 47.6741H279.763ZM311.988 45.3424V50.7497H309.657V47.6741H298.086V32.8898H300.632V45.3424H307.498V32.8898H310.046V45.3424H311.988ZM315.815 47.6741V32.8898H318.378V43.5077L326.99 32.8898H329.193V47.6741H326.668V37.0311L318.006 47.6741H315.815ZM334.134 47.6739V32.8897H336.682V43.5077L345.298 32.8897H347.5V47.6739H344.972V37.0311L336.337 47.6739H334.134ZM337.438 28.4945H339.099C339.099 29.7462 339.841 30.515 341.024 30.515C342.205 30.515 342.943 29.7462 342.943 28.4945H344.605C344.621 28.9577 344.538 29.4193 344.366 29.8516C344.193 30.284 343.931 30.6784 343.597 31.0113C343.263 31.3444 342.862 31.6091 342.42 31.79C341.978 31.9707 341.502 32.0639 341.021 32.0639C340.54 32.0639 340.065 31.9707 339.622 31.79C339.18 31.6091 338.78 31.3444 338.446 31.0113C338.112 30.6784 337.851 30.284 337.677 29.8516C337.504 29.4193 337.423 28.9577 337.438 28.4945Z" fill="#006DF0"/>
<path d="M91.3752 26.6114C92.8122 27.1131 94.139 27.8666 95.2882 28.8334C96.3795 29.8449 97.2695 31.0381 97.9152 32.355C98.5473 33.7573 98.8623 35.2718 98.8412 36.7991C98.863 38.3095 98.5473 39.8068 97.9152 41.1906C97.2749 42.5105 96.3673 43.6951 95.2446 44.6753C94.122 45.6552 92.8061 46.4112 91.3752 46.899C89.7756 47.4631 88.0835 47.7482 86.3791 47.7405H68.3911V12.6908H95.6964V19.5049H75.9079V25.8225H86.375C88.0774 25.7991 89.7709 26.0661 91.3752 26.6114ZM90.1335 33.5171C89.0211 32.7241 87.6576 32.3225 86.2723 32.3796H75.9079V41.1237H86.2723C87.6569 41.1801 89.0197 40.7798 90.1335 39.9897C91.1147 39.2502 91.5773 38.2289 91.5773 36.7815C91.5773 35.3342 91.1147 34.2637 90.1335 33.5171ZM112.78 47.7405H105.587V12.6908H112.78V27.5516L125.569 12.6908H134.511L119.926 29.5236L137.561 47.7405H128.17L112.78 31.8444V47.7405ZM148.602 46.899C144.067 45.1037 140.457 41.6615 138.56 37.3239C137.584 35.0714 137.093 32.653 137.117 30.214C137.091 27.8251 137.56 25.455 138.497 23.2413C139.435 21.0276 140.821 19.0143 142.576 17.3182C144.304 15.6707 146.35 14.3632 148.602 13.4692C151.036 12.5178 153.647 12.0471 156.277 12.0851C158.304 12.0791 160.32 12.3786 162.25 12.9726C164.118 13.5958 165.886 14.4658 167.504 15.5574C169.043 16.6723 170.397 18.0046 171.52 19.5085C172.662 21.0627 173.498 22.8023 173.993 24.643H165.909C165.558 23.7656 165.034 22.9612 164.366 22.2729C163.687 21.5722 162.906 20.9706 162.045 20.4876C161.181 20.0262 160.265 19.6623 159.314 19.4028C158.324 19.1477 157.303 19.0151 156.277 19.0085C154.655 18.9918 153.045 19.2765 151.536 19.8466C150.14 20.3998 148.879 21.2235 147.829 22.2659C146.812 23.2954 146.008 24.5014 145.46 25.8191C144.895 27.2199 144.619 28.7125 144.649 30.214C144.623 31.7163 144.902 33.2088 145.471 34.6089C146.02 35.9266 146.822 37.1325 147.841 38.162C148.878 39.2053 150.144 40.0147 151.548 40.5321C153.045 41.1424 154.66 41.4447 156.287 41.4194C157.314 41.4129 158.335 41.2804 159.325 41.0251C160.286 40.77 161.205 40.3885 162.056 39.8911C162.924 39.4437 163.708 38.8592 164.373 38.162C165.041 37.4739 165.565 36.6694 165.918 35.7921H174C173.505 37.6171 172.667 39.3404 171.527 40.8772C170.418 42.3922 169.062 43.7263 167.51 44.8283C165.918 45.9514 164.143 46.8185 162.257 47.3955C160.336 48.0294 158.316 48.3463 156.284 48.3323C153.648 48.3553 151.035 47.8678 148.602 46.899Z" fill="#006DF0"/>
<mask id="mask0_188_936" style="mask-type:alpha" maskUnits="userSpaceOnUse" x="0" y="2" width="56" height="54">
<path d="M28.1594 55.5837C43.4353 55.5837 55.8188 43.6819 55.8188 29.0003C55.8188 14.3187 43.4353 2.41699 28.1594 2.41699C12.8835 2.41699 0.5 14.3187 0.5 29.0003C0.5 43.6819 12.8835 55.5837 28.1594 55.5837Z" fill="white"/>
</mask>
<g mask="url(#mask0_188_936)">
<path d="M52.8927 42.3687C60.5461 29.3359 55.5322 12.6858 41.694 5.17953C27.856 -2.32676 10.4336 2.15327 2.78034 15.186C-4.87295 28.2187 0.140897 44.8687 13.9791 52.3751C27.8172 59.8815 45.2395 55.4013 52.8927 42.3687Z" fill="url(#paint0_linear_188_936)"/>
</g>
<mask id="mask1_188_936" style="mask-type:alpha" maskUnits="userSpaceOnUse" x="0" y="2" width="56" height="54">
<path d="M28.1594 55.5837C43.4353 55.5837 55.8188 43.6819 55.8188 29.0003C55.8188 14.3187 43.4353 2.41699 28.1594 2.41699C12.8835 2.41699 0.5 14.3187 0.5 29.0003C0.5 43.6819 12.8835 55.5837 28.1594 55.5837Z" fill="white"/>
</mask>
<g mask="url(#mask1_188_936)">
<path d="M53.5432 39.6948C60.846 30.059 57.1229 15.4967 45.2274 7.16927C33.332 -1.15828 17.7686 -0.0976746 10.4658 9.53819C3.16296 19.174 6.88607 33.7362 18.7815 42.0638C30.677 50.3912 46.2404 49.3307 53.5432 39.6948Z" fill="url(#paint1_radial_188_936)"/>
</g>
<mask id="mask2_188_936" style="mask-type:alpha" maskUnits="userSpaceOnUse" x="0" y="2" width="56" height="54">
<path d="M28.1594 55.5837C43.4353 55.5837 55.8188 43.6819 55.8188 29.0003C55.8188 14.3187 43.4353 2.41699 28.1594 2.41699C12.8835 2.41699 0.5 14.3187 0.5 29.0003C0.5 43.6819 12.8835 55.5837 28.1594 55.5837Z" fill="white"/>
</mask>
<g mask="url(#mask2_188_936)">
<path d="M53.7358 27.2842C57.3585 20.5327 51.4813 10.6912 40.6087 5.30236C29.7362 -0.0864207 17.9854 1.01826 14.3628 7.76973C10.7402 14.5211 16.6175 24.3629 27.4899 29.7517C38.3624 35.1404 50.1132 34.0357 53.7358 27.2842Z" fill="url(#paint2_radial_188_936)"/>
</g>
</g>
<defs>
<linearGradient id="paint0_linear_188_936" x1="43.31" y1="89.8674" x2="28.2531" y2="-7.74874" gradientUnits="userSpaceOnUse">
<stop stop-color="#006DEF"/>
<stop offset="0.11" stop-color="#0570EF"/>
<stop offset="0.23" stop-color="#1277F0"/>
<stop offset="0.37" stop-color="#2884F2"/>
<stop offset="0.5" stop-color="#4896F4"/>
<stop offset="0.64" stop-color="#70ADF6"/>
<stop offset="0.78" stop-color="#A1C9F9"/>
<stop offset="0.92" stop-color="#DBEAFD"/>
<stop offset="1" stop-color="white"/>
</linearGradient>
<radialGradient id="paint1_radial_188_936" cx="0" cy="0" r="1" gradientUnits="userSpaceOnUse" gradientTransform="translate(66.4841 37.3777) rotate(105.88) scale(40.9853 71.0769)">
<stop offset="0.03" stop-color="#006DEF"/>
<stop offset="0.1" stop-color="#0671EF"/>
<stop offset="0.21" stop-color="#187BF0"/>
<stop offset="0.33" stop-color="#358BF2"/>
<stop offset="0.46" stop-color="#5EA3F4"/>
<stop offset="0.61" stop-color="#92C1F8"/>
<stop offset="0.76" stop-color="#D1E4FB"/>
<stop offset="0.83" stop-color="#F0F6FD"/>
</radialGradient>
<radialGradient id="paint2_radial_188_936" cx="0" cy="0" r="1" gradientUnits="userSpaceOnUse" gradientTransform="translate(69.5387 11.9157) rotate(47.1607) scale(59.2538 50.1238)">
<stop offset="0.06" stop-color="#006DEF"/>
<stop offset="0.09" stop-color="#0F75F0"/>
<stop offset="0.25" stop-color="#529CF4"/>
<stop offset="0.4" stop-color="#8BBCF7"/>
<stop offset="0.54" stop-color="#B6D5FA"/>
<stop offset="0.67" stop-color="#D6E7FB"/>
<stop offset="0.77" stop-color="#E9F2FD"/>
<stop offset="0.84" stop-color="#F0F6FD"/>
</radialGradient>
<clipPath id="clip0_188_936">
<rect width="347" height="58" fill="white" transform="translate(0.5)"/>
</clipPath>
</defs>
</svg>
