<svg width="169" height="30" viewBox="0 0 169 30" fill="none" xmlns="http://www.w3.org/2000/svg">
<path d="M0.424805 0.0981445H29.4658V14.8038C29.4658 18.5748 27.474 22.0514 24.2286 23.9439L14.9523 29.3411L5.67586 23.9439C2.43051 22.0654 0.438733 18.5748 0.438733 14.8038V0.0981445H0.424805Z" fill="#FFDD2D"/>
<path fill-rule="evenodd" clip-rule="evenodd" d="M8.39209 7.83643V12.4065C9.01887 11.7056 10.1471 11.229 11.4285 11.229H12.8353V16.542C12.8353 17.9579 12.4592 19.1916 11.8881 19.8785H17.9888C17.4178 19.1916 17.0417 17.9579 17.0417 16.542V11.229H18.4485C19.7438 11.229 20.872 11.7056 21.4849 12.4065V7.83643H8.39209Z" fill="#333333"/>
<path d="M160.812 7.14941V8.36904C165.408 8.46717 168.152 10.4158 168.152 13.8503C168.152 17.2849 165.408 19.0793 160.812 19.1915V20.4111H157.176V19.1915C152.608 19.0933 149.864 17.2989 149.864 13.8503C149.864 10.4158 152.608 8.46717 157.176 8.36904V7.14941H160.812ZM157.176 16.612V10.9765C154.669 11.0746 153.555 12.2382 153.555 13.8644C153.555 15.4765 154.669 16.5139 157.176 16.612ZM160.812 10.9765V16.612C163.347 16.5139 164.433 15.4765 164.433 13.8503C164.433 12.2382 163.361 11.0746 160.812 10.9765Z" fill="white"/>
<path d="M141.367 7.14941V8.36904C145.964 8.46717 148.708 10.4158 148.708 13.8503C148.708 17.2849 145.964 19.0793 141.367 19.1915V20.4111H137.732V19.1915C133.163 19.0933 130.419 17.2989 130.419 13.8503C130.419 10.4158 133.163 8.46717 137.732 8.36904V7.14941H141.367ZM137.718 16.612V10.9765C135.211 11.0746 134.097 12.2382 134.097 13.8644C134.11 15.4765 135.211 16.5139 137.718 16.612ZM141.367 10.9765V16.612C143.902 16.5139 144.989 15.4765 144.989 13.8503C144.989 12.2382 143.902 11.0746 141.367 10.9765Z" fill="white"/>
<path d="M121.422 7.51392C126.297 7.51392 129.236 10.2896 129.236 13.8784C129.236 17.4672 126.297 20.2429 121.422 20.2429C116.519 20.2429 113.58 17.4672 113.58 13.8784C113.594 10.2896 116.533 7.51392 121.422 7.51392ZM121.422 17.313C123.831 17.313 125.419 15.841 125.419 13.8784C125.419 11.9018 123.831 10.4719 121.422 10.4719C118.984 10.4719 117.424 11.9158 117.424 13.8784C117.424 15.855 118.984 17.313 121.422 17.313Z" fill="white"/>
<path d="M104.735 15.3223H103.733V19.8784H100.097V7.85034H103.733V12.3784H104.735L109.137 7.85034H113.705L107.883 13.598L113.942 19.8644H109.095L104.735 15.3223Z" fill="white"/>
<path d="M92.8123 19.8784H85.4302V7.85034H89.0794V11.0746H92.8262C93.7316 11.0746 94.6787 11.1027 95.4866 11.3971C97.1719 12.0279 98.2305 13.4158 98.2305 15.4204C98.2305 17.5232 97.0048 19.0653 95.1105 19.598C94.3862 19.7943 93.6341 19.8784 92.8123 19.8784ZM92.1716 13.9064H89.0516V16.9625H92.1716C92.7984 16.9625 93.2023 16.9625 93.6062 16.7802C94.1773 16.5279 94.5394 15.9952 94.5394 15.3644C94.5394 14.7616 94.1912 14.2569 93.5784 14.0466C93.1605 13.9064 92.673 13.9064 92.1716 13.9064Z" fill="white"/>
<path d="M79.0234 15.3925H73.1734V19.8645H69.5381V7.83643H73.1734V12.2383H79.0234V7.83643H82.6588V19.8645H79.0234V15.3925Z" fill="white"/>
<path d="M57.2667 14.8458L63.5485 7.83643H66.7659V19.8645H63.1306V12.8551L56.8488 19.8645H53.6313V7.83643H57.2667V14.8458Z" fill="white"/>
<path d="M46.9458 19.8784H43.1712V11.0606H37.9897V7.85034H52.1133V11.0606H46.9458V19.8784Z" fill="white"/>
</svg>
