<svg width="157" height="60" viewBox="0 0 157 60" fill="none" xmlns="http://www.w3.org/2000/svg">
<g clip-path="url(#clip0_2119_1423)">
<path d="M10.8404 1.29736L8.12751 8.85536H45.7084L48.4213 1.29736H10.8404ZM6.77267 12.6311L4.05982 20.1876H41.6406L44.3536 12.6311H6.77267ZM2.71285 23.9648L0 31.5197H37.5809L40.2906 23.9632L2.71285 23.9648Z" fill="#009FDF"/>
<path d="M79.0056 33.8917V34.0486C80.6932 34.6781 82.3067 35.7803 83.1506 36.4883C85.7593 38.6927 86.9123 41.6033 86.9123 45.3807C86.9123 51.6011 83.6884 56.0849 78.3905 57.5027C76.777 57.9753 75.0892 58.1322 71.9426 58.1322H55.9021V12.6401H70.1037C73.0215 12.6401 75.0151 12.7971 76.7801 13.2681C81.9234 14.6858 85.3019 18.3062 85.3019 24.0508C85.3019 27.1218 84.2279 29.72 82.4629 31.4502C81.6947 32.2368 80.6207 33.1819 79.0087 33.8899L79.0056 33.8917ZM64.8057 38.6927V50.6559H70.9474C72.7881 50.6559 74.479 50.499 75.7059 49.3184C76.9346 48.1378 77.4709 46.6415 77.4709 44.6743C77.4709 43.1813 77.0861 41.7635 76.3195 40.74C75.0151 39.0867 73.4016 38.6927 70.6398 38.6927H64.8057ZM64.7268 30.8206H69.7172C71.2518 30.8206 72.02 30.8206 72.7865 30.5851C74.8606 29.954 76.165 28.0685 76.165 25.4701C76.165 22.4008 74.7832 21.0615 72.7865 20.4336C71.9411 20.1965 71.0989 20.1196 69.4096 20.1196H64.7268V30.8206ZM100.268 58.1338V20.2751H87.4502V12.6417H123.069L120.536 20.2751H109.173V58.1338H100.268ZM125.832 58.1338V12.6417H154.696L152.163 20.2751H134.662V30.3513H141.802C147.559 30.3513 150.552 31.7689 152.626 33.5775C154.24 34.9953 157.002 38.1416 157.002 44.3619C157.002 50.5006 154.163 53.8839 151.781 55.6172C149.018 57.5827 146.101 58.1354 140.188 58.1354H125.834L125.832 58.1338ZM134.66 50.4974H141.338C143.871 50.4974 145.406 49.8677 146.48 48.4501C147.016 47.7436 147.784 46.4813 147.784 44.1216C147.784 41.7619 147.016 40.1071 145.481 38.9264C144.562 38.22 143.332 37.8276 141.259 37.8276H134.657V50.4974H134.66Z" fill="#0A2973"/>
</g>
<defs>
<clipPath id="clip0_2119_1423">
<rect width="157" height="59" fill="white" transform="translate(0 0.5)"/>
</clipPath>
</defs>
</svg>
